%TF.GenerationSoftware,KiCad,Pcbnew,10.0.3*%
%TF.CreationDate,2026-09-30T18:54:53+09:00*%
%TF.ProjectId,fsk-timekeeper,66736b2d-7469-46d6-956b-65657065722e,rev?*%
%TF.SameCoordinates,Original*%
%TF.FileFunction,Legend,Top*%
%TF.FilePolarity,Positive*%
%FSLAX46Y46*%
G04 Gerber Fmt 4.6, Leading zero omitted, Abs format (unit mm)*
G04 Created by KiCad (PCBNEW 10.0.3) date 2026-09-30 18:54:53*
%MOMM*%
%LPD*%
G01*
G04 APERTURE LIST*
G04 Aperture macros list*
%AMRoundRect*
0 Rectangle with rounded corners*
0 $1 Rounding radius*
0 $2 $3 $4 $5 $6 $7 $8 $9 X,Y pos of 4 corners*
0 Add a 4 corners polygon primitive as box body*
4,1,4,$2,$3,$4,$5,$6,$7,$8,$9,$2,$3,0*
0 Add four circle primitives for the rounded corners*
1,1,$1+$1,$2,$3*
1,1,$1+$1,$4,$5*
1,1,$1+$1,$6,$7*
1,1,$1+$1,$8,$9*
0 Add four rect primitives between the rounded corners*
20,1,$1+$1,$2,$3,$4,$5,0*
20,1,$1+$1,$4,$5,$6,$7,0*
20,1,$1+$1,$6,$7,$8,$9,0*
20,1,$1+$1,$8,$9,$2,$3,0*%
G04 Aperture macros list end*
%ADD10C,0.100000*%
%ADD11C,0.150000*%
%ADD12C,0.000000*%
%ADD13C,0.120000*%
%ADD14C,0.254000*%
%ADD15C,0.200000*%
%ADD16RoundRect,0.250000X-0.925000X-1.500000X0.925000X-1.500000X0.925000X1.500000X-0.925000X1.500000X0*%
%ADD17R,1.780000X2.290000*%
%ADD18O,1.780000X2.290000*%
%ADD19C,4.400000*%
%ADD20R,1.700000X1.700000*%
%ADD21C,1.700000*%
%ADD22RoundRect,0.225000X-0.250000X0.225000X-0.250000X-0.225000X0.250000X-0.225000X0.250000X0.225000X0*%
%ADD23C,3.000000*%
%ADD24RoundRect,0.250001X1.099999X1.599999X-1.099999X1.599999X-1.099999X-1.599999X1.099999X-1.599999X0*%
%ADD25O,2.700000X3.700000*%
%ADD26RoundRect,0.150000X-0.587500X-0.150000X0.587500X-0.150000X0.587500X0.150000X-0.587500X0.150000X0*%
%ADD27C,1.600000*%
%ADD28C,1.574800*%
%ADD29RoundRect,0.225000X0.225000X0.250000X-0.225000X0.250000X-0.225000X-0.250000X0.225000X-0.250000X0*%
%ADD30RoundRect,0.200000X-0.275000X0.200000X-0.275000X-0.200000X0.275000X-0.200000X0.275000X0.200000X0*%
%ADD31RoundRect,0.200000X0.200000X0.275000X-0.200000X0.275000X-0.200000X-0.275000X0.200000X-0.275000X0*%
%ADD32RoundRect,0.225000X0.250000X-0.225000X0.250000X0.225000X-0.250000X0.225000X-0.250000X-0.225000X0*%
%ADD33C,2.390000*%
%ADD34C,3.450000*%
%ADD35RoundRect,0.250003X-3.499997X-2.999997X3.499997X-2.999997X3.499997X2.999997X-3.499997X2.999997X0*%
%ADD36RoundRect,0.225000X0.225000X0.375000X-0.225000X0.375000X-0.225000X-0.375000X0.225000X-0.375000X0*%
%ADD37RoundRect,0.150000X0.512500X0.150000X-0.512500X0.150000X-0.512500X-0.150000X0.512500X-0.150000X0*%
%ADD38R,2.000000X1.500000*%
%ADD39RoundRect,0.200000X0.275000X-0.200000X0.275000X0.200000X-0.275000X0.200000X-0.275000X-0.200000X0*%
G04 APERTURE END LIST*
D10*
X105200570Y-85463971D02*
X104857713Y-85463971D01*
X105029142Y-85463971D02*
X105029142Y-84863971D01*
X105029142Y-84863971D02*
X104971999Y-84949685D01*
X104971999Y-84949685D02*
X104914856Y-85006828D01*
X104914856Y-85006828D02*
X104857713Y-85035400D01*
X105543428Y-85121114D02*
X105486285Y-85092542D01*
X105486285Y-85092542D02*
X105457714Y-85063971D01*
X105457714Y-85063971D02*
X105429142Y-85006828D01*
X105429142Y-85006828D02*
X105429142Y-84978257D01*
X105429142Y-84978257D02*
X105457714Y-84921114D01*
X105457714Y-84921114D02*
X105486285Y-84892542D01*
X105486285Y-84892542D02*
X105543428Y-84863971D01*
X105543428Y-84863971D02*
X105657714Y-84863971D01*
X105657714Y-84863971D02*
X105714857Y-84892542D01*
X105714857Y-84892542D02*
X105743428Y-84921114D01*
X105743428Y-84921114D02*
X105771999Y-84978257D01*
X105771999Y-84978257D02*
X105771999Y-85006828D01*
X105771999Y-85006828D02*
X105743428Y-85063971D01*
X105743428Y-85063971D02*
X105714857Y-85092542D01*
X105714857Y-85092542D02*
X105657714Y-85121114D01*
X105657714Y-85121114D02*
X105543428Y-85121114D01*
X105543428Y-85121114D02*
X105486285Y-85149685D01*
X105486285Y-85149685D02*
X105457714Y-85178257D01*
X105457714Y-85178257D02*
X105429142Y-85235400D01*
X105429142Y-85235400D02*
X105429142Y-85349685D01*
X105429142Y-85349685D02*
X105457714Y-85406828D01*
X105457714Y-85406828D02*
X105486285Y-85435400D01*
X105486285Y-85435400D02*
X105543428Y-85463971D01*
X105543428Y-85463971D02*
X105657714Y-85463971D01*
X105657714Y-85463971D02*
X105714857Y-85435400D01*
X105714857Y-85435400D02*
X105743428Y-85406828D01*
X105743428Y-85406828D02*
X105771999Y-85349685D01*
X105771999Y-85349685D02*
X105771999Y-85235400D01*
X105771999Y-85235400D02*
X105743428Y-85178257D01*
X105743428Y-85178257D02*
X105714857Y-85149685D01*
X105714857Y-85149685D02*
X105657714Y-85121114D01*
X106286286Y-84863971D02*
X106172000Y-84863971D01*
X106172000Y-84863971D02*
X106114857Y-84892542D01*
X106114857Y-84892542D02*
X106086286Y-84921114D01*
X106086286Y-84921114D02*
X106029143Y-85006828D01*
X106029143Y-85006828D02*
X106000571Y-85121114D01*
X106000571Y-85121114D02*
X106000571Y-85349685D01*
X106000571Y-85349685D02*
X106029143Y-85406828D01*
X106029143Y-85406828D02*
X106057714Y-85435400D01*
X106057714Y-85435400D02*
X106114857Y-85463971D01*
X106114857Y-85463971D02*
X106229143Y-85463971D01*
X106229143Y-85463971D02*
X106286286Y-85435400D01*
X106286286Y-85435400D02*
X106314857Y-85406828D01*
X106314857Y-85406828D02*
X106343428Y-85349685D01*
X106343428Y-85349685D02*
X106343428Y-85206828D01*
X106343428Y-85206828D02*
X106314857Y-85149685D01*
X106314857Y-85149685D02*
X106286286Y-85121114D01*
X106286286Y-85121114D02*
X106229143Y-85092542D01*
X106229143Y-85092542D02*
X106114857Y-85092542D01*
X106114857Y-85092542D02*
X106057714Y-85121114D01*
X106057714Y-85121114D02*
X106029143Y-85149685D01*
X106029143Y-85149685D02*
X106000571Y-85206828D01*
X106886286Y-84863971D02*
X106600572Y-84863971D01*
X106600572Y-84863971D02*
X106572000Y-85149685D01*
X106572000Y-85149685D02*
X106600572Y-85121114D01*
X106600572Y-85121114D02*
X106657715Y-85092542D01*
X106657715Y-85092542D02*
X106800572Y-85092542D01*
X106800572Y-85092542D02*
X106857715Y-85121114D01*
X106857715Y-85121114D02*
X106886286Y-85149685D01*
X106886286Y-85149685D02*
X106914857Y-85206828D01*
X106914857Y-85206828D02*
X106914857Y-85349685D01*
X106914857Y-85349685D02*
X106886286Y-85406828D01*
X106886286Y-85406828D02*
X106857715Y-85435400D01*
X106857715Y-85435400D02*
X106800572Y-85463971D01*
X106800572Y-85463971D02*
X106657715Y-85463971D01*
X106657715Y-85463971D02*
X106600572Y-85435400D01*
X106600572Y-85435400D02*
X106572000Y-85406828D01*
X107286286Y-84863971D02*
X107343429Y-84863971D01*
X107343429Y-84863971D02*
X107400572Y-84892542D01*
X107400572Y-84892542D02*
X107429144Y-84921114D01*
X107429144Y-84921114D02*
X107457715Y-84978257D01*
X107457715Y-84978257D02*
X107486286Y-85092542D01*
X107486286Y-85092542D02*
X107486286Y-85235400D01*
X107486286Y-85235400D02*
X107457715Y-85349685D01*
X107457715Y-85349685D02*
X107429144Y-85406828D01*
X107429144Y-85406828D02*
X107400572Y-85435400D01*
X107400572Y-85435400D02*
X107343429Y-85463971D01*
X107343429Y-85463971D02*
X107286286Y-85463971D01*
X107286286Y-85463971D02*
X107229144Y-85435400D01*
X107229144Y-85435400D02*
X107200572Y-85406828D01*
X107200572Y-85406828D02*
X107172001Y-85349685D01*
X107172001Y-85349685D02*
X107143429Y-85235400D01*
X107143429Y-85235400D02*
X107143429Y-85092542D01*
X107143429Y-85092542D02*
X107172001Y-84978257D01*
X107172001Y-84978257D02*
X107200572Y-84921114D01*
X107200572Y-84921114D02*
X107229144Y-84892542D01*
X107229144Y-84892542D02*
X107286286Y-84863971D01*
X109066862Y-95540964D02*
X109066862Y-94790964D01*
X109388291Y-95540964D02*
X109388291Y-95148107D01*
X109388291Y-95148107D02*
X109352576Y-95076678D01*
X109352576Y-95076678D02*
X109281148Y-95040964D01*
X109281148Y-95040964D02*
X109174005Y-95040964D01*
X109174005Y-95040964D02*
X109102576Y-95076678D01*
X109102576Y-95076678D02*
X109066862Y-95112392D01*
X109638290Y-95040964D02*
X109924004Y-95040964D01*
X109745433Y-94790964D02*
X109745433Y-95433821D01*
X109745433Y-95433821D02*
X109781147Y-95505250D01*
X109781147Y-95505250D02*
X109852576Y-95540964D01*
X109852576Y-95540964D02*
X109924004Y-95540964D01*
X110066861Y-95040964D02*
X110352575Y-95040964D01*
X110174004Y-94790964D02*
X110174004Y-95433821D01*
X110174004Y-95433821D02*
X110209718Y-95505250D01*
X110209718Y-95505250D02*
X110281147Y-95540964D01*
X110281147Y-95540964D02*
X110352575Y-95540964D01*
X110602575Y-95040964D02*
X110602575Y-95790964D01*
X110602575Y-95076678D02*
X110674004Y-95040964D01*
X110674004Y-95040964D02*
X110816861Y-95040964D01*
X110816861Y-95040964D02*
X110888289Y-95076678D01*
X110888289Y-95076678D02*
X110924004Y-95112392D01*
X110924004Y-95112392D02*
X110959718Y-95183821D01*
X110959718Y-95183821D02*
X110959718Y-95398107D01*
X110959718Y-95398107D02*
X110924004Y-95469535D01*
X110924004Y-95469535D02*
X110888289Y-95505250D01*
X110888289Y-95505250D02*
X110816861Y-95540964D01*
X110816861Y-95540964D02*
X110674004Y-95540964D01*
X110674004Y-95540964D02*
X110602575Y-95505250D01*
X111245432Y-95505250D02*
X111316860Y-95540964D01*
X111316860Y-95540964D02*
X111459717Y-95540964D01*
X111459717Y-95540964D02*
X111531146Y-95505250D01*
X111531146Y-95505250D02*
X111566860Y-95433821D01*
X111566860Y-95433821D02*
X111566860Y-95398107D01*
X111566860Y-95398107D02*
X111531146Y-95326678D01*
X111531146Y-95326678D02*
X111459717Y-95290964D01*
X111459717Y-95290964D02*
X111352575Y-95290964D01*
X111352575Y-95290964D02*
X111281146Y-95255250D01*
X111281146Y-95255250D02*
X111245432Y-95183821D01*
X111245432Y-95183821D02*
X111245432Y-95148107D01*
X111245432Y-95148107D02*
X111281146Y-95076678D01*
X111281146Y-95076678D02*
X111352575Y-95040964D01*
X111352575Y-95040964D02*
X111459717Y-95040964D01*
X111459717Y-95040964D02*
X111531146Y-95076678D01*
X111888289Y-95469535D02*
X111924003Y-95505250D01*
X111924003Y-95505250D02*
X111888289Y-95540964D01*
X111888289Y-95540964D02*
X111852575Y-95505250D01*
X111852575Y-95505250D02*
X111888289Y-95469535D01*
X111888289Y-95469535D02*
X111888289Y-95540964D01*
X111888289Y-95076678D02*
X111924003Y-95112392D01*
X111924003Y-95112392D02*
X111888289Y-95148107D01*
X111888289Y-95148107D02*
X111852575Y-95112392D01*
X111852575Y-95112392D02*
X111888289Y-95076678D01*
X111888289Y-95076678D02*
X111888289Y-95148107D01*
X112781146Y-94755250D02*
X112138289Y-95719535D01*
X113566860Y-94755250D02*
X112924003Y-95719535D01*
X114138289Y-95040964D02*
X114138289Y-95648107D01*
X114138289Y-95648107D02*
X114102574Y-95719535D01*
X114102574Y-95719535D02*
X114066860Y-95755250D01*
X114066860Y-95755250D02*
X113995431Y-95790964D01*
X113995431Y-95790964D02*
X113888289Y-95790964D01*
X113888289Y-95790964D02*
X113816860Y-95755250D01*
X114138289Y-95505250D02*
X114066860Y-95540964D01*
X114066860Y-95540964D02*
X113924003Y-95540964D01*
X113924003Y-95540964D02*
X113852574Y-95505250D01*
X113852574Y-95505250D02*
X113816860Y-95469535D01*
X113816860Y-95469535D02*
X113781146Y-95398107D01*
X113781146Y-95398107D02*
X113781146Y-95183821D01*
X113781146Y-95183821D02*
X113816860Y-95112392D01*
X113816860Y-95112392D02*
X113852574Y-95076678D01*
X113852574Y-95076678D02*
X113924003Y-95040964D01*
X113924003Y-95040964D02*
X114066860Y-95040964D01*
X114066860Y-95040964D02*
X114138289Y-95076678D01*
X114495431Y-95540964D02*
X114495431Y-95040964D01*
X114495431Y-94790964D02*
X114459717Y-94826678D01*
X114459717Y-94826678D02*
X114495431Y-94862392D01*
X114495431Y-94862392D02*
X114531145Y-94826678D01*
X114531145Y-94826678D02*
X114495431Y-94790964D01*
X114495431Y-94790964D02*
X114495431Y-94862392D01*
X114745431Y-95040964D02*
X115031145Y-95040964D01*
X114852574Y-94790964D02*
X114852574Y-95433821D01*
X114852574Y-95433821D02*
X114888288Y-95505250D01*
X114888288Y-95505250D02*
X114959717Y-95540964D01*
X114959717Y-95540964D02*
X115031145Y-95540964D01*
X115281145Y-95540964D02*
X115281145Y-94790964D01*
X115602574Y-95540964D02*
X115602574Y-95148107D01*
X115602574Y-95148107D02*
X115566859Y-95076678D01*
X115566859Y-95076678D02*
X115495431Y-95040964D01*
X115495431Y-95040964D02*
X115388288Y-95040964D01*
X115388288Y-95040964D02*
X115316859Y-95076678D01*
X115316859Y-95076678D02*
X115281145Y-95112392D01*
X116281145Y-95040964D02*
X116281145Y-95540964D01*
X115959716Y-95040964D02*
X115959716Y-95433821D01*
X115959716Y-95433821D02*
X115995430Y-95505250D01*
X115995430Y-95505250D02*
X116066859Y-95540964D01*
X116066859Y-95540964D02*
X116174002Y-95540964D01*
X116174002Y-95540964D02*
X116245430Y-95505250D01*
X116245430Y-95505250D02*
X116281145Y-95469535D01*
X116638287Y-95540964D02*
X116638287Y-94790964D01*
X116638287Y-95076678D02*
X116709716Y-95040964D01*
X116709716Y-95040964D02*
X116852573Y-95040964D01*
X116852573Y-95040964D02*
X116924001Y-95076678D01*
X116924001Y-95076678D02*
X116959716Y-95112392D01*
X116959716Y-95112392D02*
X116995430Y-95183821D01*
X116995430Y-95183821D02*
X116995430Y-95398107D01*
X116995430Y-95398107D02*
X116959716Y-95469535D01*
X116959716Y-95469535D02*
X116924001Y-95505250D01*
X116924001Y-95505250D02*
X116852573Y-95540964D01*
X116852573Y-95540964D02*
X116709716Y-95540964D01*
X116709716Y-95540964D02*
X116638287Y-95505250D01*
X117316858Y-95469535D02*
X117352572Y-95505250D01*
X117352572Y-95505250D02*
X117316858Y-95540964D01*
X117316858Y-95540964D02*
X117281144Y-95505250D01*
X117281144Y-95505250D02*
X117316858Y-95469535D01*
X117316858Y-95469535D02*
X117316858Y-95540964D01*
X117995430Y-95505250D02*
X117924001Y-95540964D01*
X117924001Y-95540964D02*
X117781144Y-95540964D01*
X117781144Y-95540964D02*
X117709715Y-95505250D01*
X117709715Y-95505250D02*
X117674001Y-95469535D01*
X117674001Y-95469535D02*
X117638287Y-95398107D01*
X117638287Y-95398107D02*
X117638287Y-95183821D01*
X117638287Y-95183821D02*
X117674001Y-95112392D01*
X117674001Y-95112392D02*
X117709715Y-95076678D01*
X117709715Y-95076678D02*
X117781144Y-95040964D01*
X117781144Y-95040964D02*
X117924001Y-95040964D01*
X117924001Y-95040964D02*
X117995430Y-95076678D01*
X118424001Y-95540964D02*
X118352572Y-95505250D01*
X118352572Y-95505250D02*
X118316858Y-95469535D01*
X118316858Y-95469535D02*
X118281144Y-95398107D01*
X118281144Y-95398107D02*
X118281144Y-95183821D01*
X118281144Y-95183821D02*
X118316858Y-95112392D01*
X118316858Y-95112392D02*
X118352572Y-95076678D01*
X118352572Y-95076678D02*
X118424001Y-95040964D01*
X118424001Y-95040964D02*
X118531144Y-95040964D01*
X118531144Y-95040964D02*
X118602572Y-95076678D01*
X118602572Y-95076678D02*
X118638287Y-95112392D01*
X118638287Y-95112392D02*
X118674001Y-95183821D01*
X118674001Y-95183821D02*
X118674001Y-95398107D01*
X118674001Y-95398107D02*
X118638287Y-95469535D01*
X118638287Y-95469535D02*
X118602572Y-95505250D01*
X118602572Y-95505250D02*
X118531144Y-95540964D01*
X118531144Y-95540964D02*
X118424001Y-95540964D01*
X118995429Y-95540964D02*
X118995429Y-95040964D01*
X118995429Y-95112392D02*
X119031143Y-95076678D01*
X119031143Y-95076678D02*
X119102572Y-95040964D01*
X119102572Y-95040964D02*
X119209715Y-95040964D01*
X119209715Y-95040964D02*
X119281143Y-95076678D01*
X119281143Y-95076678D02*
X119316858Y-95148107D01*
X119316858Y-95148107D02*
X119316858Y-95540964D01*
X119316858Y-95148107D02*
X119352572Y-95076678D01*
X119352572Y-95076678D02*
X119424000Y-95040964D01*
X119424000Y-95040964D02*
X119531143Y-95040964D01*
X119531143Y-95040964D02*
X119602572Y-95076678D01*
X119602572Y-95076678D02*
X119638286Y-95148107D01*
X119638286Y-95148107D02*
X119638286Y-95540964D01*
X120531143Y-94755250D02*
X119888286Y-95719535D01*
X120888286Y-95540964D02*
X120816857Y-95505250D01*
X120816857Y-95505250D02*
X120781143Y-95433821D01*
X120781143Y-95433821D02*
X120781143Y-94790964D01*
X121495429Y-95040964D02*
X121495429Y-95540964D01*
X121174000Y-95040964D02*
X121174000Y-95433821D01*
X121174000Y-95433821D02*
X121209714Y-95505250D01*
X121209714Y-95505250D02*
X121281143Y-95540964D01*
X121281143Y-95540964D02*
X121388286Y-95540964D01*
X121388286Y-95540964D02*
X121459714Y-95505250D01*
X121459714Y-95505250D02*
X121495429Y-95469535D01*
X121745428Y-95040964D02*
X122031142Y-95040964D01*
X121852571Y-95540964D02*
X121852571Y-94898107D01*
X121852571Y-94898107D02*
X121888285Y-94826678D01*
X121888285Y-94826678D02*
X121959714Y-94790964D01*
X121959714Y-94790964D02*
X122031142Y-94790964D01*
X122173999Y-95040964D02*
X122459713Y-95040964D01*
X122281142Y-94790964D02*
X122281142Y-95433821D01*
X122281142Y-95433821D02*
X122316856Y-95505250D01*
X122316856Y-95505250D02*
X122388285Y-95540964D01*
X122388285Y-95540964D02*
X122459713Y-95540964D01*
X123031142Y-95540964D02*
X123031142Y-95148107D01*
X123031142Y-95148107D02*
X122995427Y-95076678D01*
X122995427Y-95076678D02*
X122923999Y-95040964D01*
X122923999Y-95040964D02*
X122781142Y-95040964D01*
X122781142Y-95040964D02*
X122709713Y-95076678D01*
X123031142Y-95505250D02*
X122959713Y-95540964D01*
X122959713Y-95540964D02*
X122781142Y-95540964D01*
X122781142Y-95540964D02*
X122709713Y-95505250D01*
X122709713Y-95505250D02*
X122673999Y-95433821D01*
X122673999Y-95433821D02*
X122673999Y-95362392D01*
X122673999Y-95362392D02*
X122709713Y-95290964D01*
X122709713Y-95290964D02*
X122781142Y-95255250D01*
X122781142Y-95255250D02*
X122959713Y-95255250D01*
X122959713Y-95255250D02*
X123031142Y-95219535D01*
X123709713Y-95040964D02*
X123709713Y-95790964D01*
X123709713Y-95505250D02*
X123638284Y-95540964D01*
X123638284Y-95540964D02*
X123495427Y-95540964D01*
X123495427Y-95540964D02*
X123423998Y-95505250D01*
X123423998Y-95505250D02*
X123388284Y-95469535D01*
X123388284Y-95469535D02*
X123352570Y-95398107D01*
X123352570Y-95398107D02*
X123352570Y-95183821D01*
X123352570Y-95183821D02*
X123388284Y-95112392D01*
X123388284Y-95112392D02*
X123423998Y-95076678D01*
X123423998Y-95076678D02*
X123495427Y-95040964D01*
X123495427Y-95040964D02*
X123638284Y-95040964D01*
X123638284Y-95040964D02*
X123709713Y-95076678D01*
X124388284Y-95040964D02*
X124388284Y-95540964D01*
X124066855Y-95040964D02*
X124066855Y-95433821D01*
X124066855Y-95433821D02*
X124102569Y-95505250D01*
X124102569Y-95505250D02*
X124173998Y-95540964D01*
X124173998Y-95540964D02*
X124281141Y-95540964D01*
X124281141Y-95540964D02*
X124352569Y-95505250D01*
X124352569Y-95505250D02*
X124388284Y-95469535D01*
X124745426Y-95540964D02*
X124745426Y-95040964D01*
X124745426Y-94790964D02*
X124709712Y-94826678D01*
X124709712Y-94826678D02*
X124745426Y-94862392D01*
X124745426Y-94862392D02*
X124781140Y-94826678D01*
X124781140Y-94826678D02*
X124745426Y-94790964D01*
X124745426Y-94790964D02*
X124745426Y-94862392D01*
X125209712Y-95540964D02*
X125138283Y-95505250D01*
X125138283Y-95505250D02*
X125102569Y-95433821D01*
X125102569Y-95433821D02*
X125102569Y-94790964D01*
X125816855Y-95540964D02*
X125816855Y-95148107D01*
X125816855Y-95148107D02*
X125781140Y-95076678D01*
X125781140Y-95076678D02*
X125709712Y-95040964D01*
X125709712Y-95040964D02*
X125566855Y-95040964D01*
X125566855Y-95040964D02*
X125495426Y-95076678D01*
X125816855Y-95505250D02*
X125745426Y-95540964D01*
X125745426Y-95540964D02*
X125566855Y-95540964D01*
X125566855Y-95540964D02*
X125495426Y-95505250D01*
X125495426Y-95505250D02*
X125459712Y-95433821D01*
X125459712Y-95433821D02*
X125459712Y-95362392D01*
X125459712Y-95362392D02*
X125495426Y-95290964D01*
X125495426Y-95290964D02*
X125566855Y-95255250D01*
X125566855Y-95255250D02*
X125745426Y-95255250D01*
X125745426Y-95255250D02*
X125816855Y-95219535D01*
X126709711Y-94755250D02*
X126066854Y-95719535D01*
X126852568Y-95040964D02*
X127138282Y-95040964D01*
X126959711Y-95540964D02*
X126959711Y-94898107D01*
X126959711Y-94898107D02*
X126995425Y-94826678D01*
X126995425Y-94826678D02*
X127066854Y-94790964D01*
X127066854Y-94790964D02*
X127138282Y-94790964D01*
X127352568Y-95505250D02*
X127423996Y-95540964D01*
X127423996Y-95540964D02*
X127566853Y-95540964D01*
X127566853Y-95540964D02*
X127638282Y-95505250D01*
X127638282Y-95505250D02*
X127673996Y-95433821D01*
X127673996Y-95433821D02*
X127673996Y-95398107D01*
X127673996Y-95398107D02*
X127638282Y-95326678D01*
X127638282Y-95326678D02*
X127566853Y-95290964D01*
X127566853Y-95290964D02*
X127459711Y-95290964D01*
X127459711Y-95290964D02*
X127388282Y-95255250D01*
X127388282Y-95255250D02*
X127352568Y-95183821D01*
X127352568Y-95183821D02*
X127352568Y-95148107D01*
X127352568Y-95148107D02*
X127388282Y-95076678D01*
X127388282Y-95076678D02*
X127459711Y-95040964D01*
X127459711Y-95040964D02*
X127566853Y-95040964D01*
X127566853Y-95040964D02*
X127638282Y-95076678D01*
X127995425Y-95540964D02*
X127995425Y-94790964D01*
X128066854Y-95255250D02*
X128281139Y-95540964D01*
X128281139Y-95040964D02*
X127995425Y-95326678D01*
X128602568Y-95255250D02*
X129173997Y-95255250D01*
X129423996Y-95040964D02*
X129709710Y-95040964D01*
X129531139Y-94790964D02*
X129531139Y-95433821D01*
X129531139Y-95433821D02*
X129566853Y-95505250D01*
X129566853Y-95505250D02*
X129638282Y-95540964D01*
X129638282Y-95540964D02*
X129709710Y-95540964D01*
X129959710Y-95540964D02*
X129959710Y-95040964D01*
X129959710Y-94790964D02*
X129923996Y-94826678D01*
X129923996Y-94826678D02*
X129959710Y-94862392D01*
X129959710Y-94862392D02*
X129995424Y-94826678D01*
X129995424Y-94826678D02*
X129959710Y-94790964D01*
X129959710Y-94790964D02*
X129959710Y-94862392D01*
X130316853Y-95540964D02*
X130316853Y-95040964D01*
X130316853Y-95112392D02*
X130352567Y-95076678D01*
X130352567Y-95076678D02*
X130423996Y-95040964D01*
X130423996Y-95040964D02*
X130531139Y-95040964D01*
X130531139Y-95040964D02*
X130602567Y-95076678D01*
X130602567Y-95076678D02*
X130638282Y-95148107D01*
X130638282Y-95148107D02*
X130638282Y-95540964D01*
X130638282Y-95148107D02*
X130673996Y-95076678D01*
X130673996Y-95076678D02*
X130745424Y-95040964D01*
X130745424Y-95040964D02*
X130852567Y-95040964D01*
X130852567Y-95040964D02*
X130923996Y-95076678D01*
X130923996Y-95076678D02*
X130959710Y-95148107D01*
X130959710Y-95148107D02*
X130959710Y-95540964D01*
X131602567Y-95505250D02*
X131531139Y-95540964D01*
X131531139Y-95540964D02*
X131388282Y-95540964D01*
X131388282Y-95540964D02*
X131316853Y-95505250D01*
X131316853Y-95505250D02*
X131281139Y-95433821D01*
X131281139Y-95433821D02*
X131281139Y-95148107D01*
X131281139Y-95148107D02*
X131316853Y-95076678D01*
X131316853Y-95076678D02*
X131388282Y-95040964D01*
X131388282Y-95040964D02*
X131531139Y-95040964D01*
X131531139Y-95040964D02*
X131602567Y-95076678D01*
X131602567Y-95076678D02*
X131638282Y-95148107D01*
X131638282Y-95148107D02*
X131638282Y-95219535D01*
X131638282Y-95219535D02*
X131281139Y-95290964D01*
X131959710Y-95540964D02*
X131959710Y-94790964D01*
X132031139Y-95255250D02*
X132245424Y-95540964D01*
X132245424Y-95040964D02*
X131959710Y-95326678D01*
X132852567Y-95505250D02*
X132781139Y-95540964D01*
X132781139Y-95540964D02*
X132638282Y-95540964D01*
X132638282Y-95540964D02*
X132566853Y-95505250D01*
X132566853Y-95505250D02*
X132531139Y-95433821D01*
X132531139Y-95433821D02*
X132531139Y-95148107D01*
X132531139Y-95148107D02*
X132566853Y-95076678D01*
X132566853Y-95076678D02*
X132638282Y-95040964D01*
X132638282Y-95040964D02*
X132781139Y-95040964D01*
X132781139Y-95040964D02*
X132852567Y-95076678D01*
X132852567Y-95076678D02*
X132888282Y-95148107D01*
X132888282Y-95148107D02*
X132888282Y-95219535D01*
X132888282Y-95219535D02*
X132531139Y-95290964D01*
X133495424Y-95505250D02*
X133423996Y-95540964D01*
X133423996Y-95540964D02*
X133281139Y-95540964D01*
X133281139Y-95540964D02*
X133209710Y-95505250D01*
X133209710Y-95505250D02*
X133173996Y-95433821D01*
X133173996Y-95433821D02*
X133173996Y-95148107D01*
X133173996Y-95148107D02*
X133209710Y-95076678D01*
X133209710Y-95076678D02*
X133281139Y-95040964D01*
X133281139Y-95040964D02*
X133423996Y-95040964D01*
X133423996Y-95040964D02*
X133495424Y-95076678D01*
X133495424Y-95076678D02*
X133531139Y-95148107D01*
X133531139Y-95148107D02*
X133531139Y-95219535D01*
X133531139Y-95219535D02*
X133173996Y-95290964D01*
X133852567Y-95040964D02*
X133852567Y-95790964D01*
X133852567Y-95076678D02*
X133923996Y-95040964D01*
X133923996Y-95040964D02*
X134066853Y-95040964D01*
X134066853Y-95040964D02*
X134138281Y-95076678D01*
X134138281Y-95076678D02*
X134173996Y-95112392D01*
X134173996Y-95112392D02*
X134209710Y-95183821D01*
X134209710Y-95183821D02*
X134209710Y-95398107D01*
X134209710Y-95398107D02*
X134173996Y-95469535D01*
X134173996Y-95469535D02*
X134138281Y-95505250D01*
X134138281Y-95505250D02*
X134066853Y-95540964D01*
X134066853Y-95540964D02*
X133923996Y-95540964D01*
X133923996Y-95540964D02*
X133852567Y-95505250D01*
X134816852Y-95505250D02*
X134745424Y-95540964D01*
X134745424Y-95540964D02*
X134602567Y-95540964D01*
X134602567Y-95540964D02*
X134531138Y-95505250D01*
X134531138Y-95505250D02*
X134495424Y-95433821D01*
X134495424Y-95433821D02*
X134495424Y-95148107D01*
X134495424Y-95148107D02*
X134531138Y-95076678D01*
X134531138Y-95076678D02*
X134602567Y-95040964D01*
X134602567Y-95040964D02*
X134745424Y-95040964D01*
X134745424Y-95040964D02*
X134816852Y-95076678D01*
X134816852Y-95076678D02*
X134852567Y-95148107D01*
X134852567Y-95148107D02*
X134852567Y-95219535D01*
X134852567Y-95219535D02*
X134495424Y-95290964D01*
X135173995Y-95540964D02*
X135173995Y-95040964D01*
X135173995Y-95183821D02*
X135209709Y-95112392D01*
X135209709Y-95112392D02*
X135245424Y-95076678D01*
X135245424Y-95076678D02*
X135316852Y-95040964D01*
X135316852Y-95040964D02*
X135388281Y-95040964D01*
X189052324Y-91855695D02*
X189052324Y-91055695D01*
X189052324Y-91055695D02*
X189357086Y-91055695D01*
X189357086Y-91055695D02*
X189433276Y-91093790D01*
X189433276Y-91093790D02*
X189471371Y-91131885D01*
X189471371Y-91131885D02*
X189509467Y-91208076D01*
X189509467Y-91208076D02*
X189509467Y-91322361D01*
X189509467Y-91322361D02*
X189471371Y-91398552D01*
X189471371Y-91398552D02*
X189433276Y-91436647D01*
X189433276Y-91436647D02*
X189357086Y-91474742D01*
X189357086Y-91474742D02*
X189052324Y-91474742D01*
X189852324Y-91855695D02*
X189852324Y-91055695D01*
X189852324Y-91055695D02*
X190157086Y-91055695D01*
X190157086Y-91055695D02*
X190233276Y-91093790D01*
X190233276Y-91093790D02*
X190271371Y-91131885D01*
X190271371Y-91131885D02*
X190309467Y-91208076D01*
X190309467Y-91208076D02*
X190309467Y-91322361D01*
X190309467Y-91322361D02*
X190271371Y-91398552D01*
X190271371Y-91398552D02*
X190233276Y-91436647D01*
X190233276Y-91436647D02*
X190157086Y-91474742D01*
X190157086Y-91474742D02*
X189852324Y-91474742D01*
X190614228Y-91817600D02*
X190728514Y-91855695D01*
X190728514Y-91855695D02*
X190918990Y-91855695D01*
X190918990Y-91855695D02*
X190995181Y-91817600D01*
X190995181Y-91817600D02*
X191033276Y-91779504D01*
X191033276Y-91779504D02*
X191071371Y-91703314D01*
X191071371Y-91703314D02*
X191071371Y-91627123D01*
X191071371Y-91627123D02*
X191033276Y-91550933D01*
X191033276Y-91550933D02*
X190995181Y-91512838D01*
X190995181Y-91512838D02*
X190918990Y-91474742D01*
X190918990Y-91474742D02*
X190766609Y-91436647D01*
X190766609Y-91436647D02*
X190690419Y-91398552D01*
X190690419Y-91398552D02*
X190652324Y-91360457D01*
X190652324Y-91360457D02*
X190614228Y-91284266D01*
X190614228Y-91284266D02*
X190614228Y-91208076D01*
X190614228Y-91208076D02*
X190652324Y-91131885D01*
X190652324Y-91131885D02*
X190690419Y-91093790D01*
X190690419Y-91093790D02*
X190766609Y-91055695D01*
X190766609Y-91055695D02*
X190957086Y-91055695D01*
X190957086Y-91055695D02*
X191071371Y-91093790D01*
X134743695Y-107861066D02*
X135543695Y-107327732D01*
X134743695Y-107327732D02*
X135543695Y-107861066D01*
X136788895Y-113576038D02*
X136788895Y-114033181D01*
X136788895Y-113804609D02*
X135988895Y-113804609D01*
X135988895Y-113804609D02*
X136103180Y-113880800D01*
X136103180Y-113880800D02*
X136179371Y-113956990D01*
X136179371Y-113956990D02*
X136217466Y-114033181D01*
X136065085Y-113271276D02*
X136026990Y-113233180D01*
X136026990Y-113233180D02*
X135988895Y-113156990D01*
X135988895Y-113156990D02*
X135988895Y-112966514D01*
X135988895Y-112966514D02*
X136026990Y-112890323D01*
X136026990Y-112890323D02*
X136065085Y-112852228D01*
X136065085Y-112852228D02*
X136141276Y-112814133D01*
X136141276Y-112814133D02*
X136217466Y-112814133D01*
X136217466Y-112814133D02*
X136331752Y-112852228D01*
X136331752Y-112852228D02*
X136788895Y-113309371D01*
X136788895Y-113309371D02*
X136788895Y-112814133D01*
X135988895Y-112585561D02*
X136788895Y-112318894D01*
X136788895Y-112318894D02*
X135988895Y-112052228D01*
X125555600Y-105828418D02*
X125517504Y-105942704D01*
X125517504Y-105942704D02*
X125517504Y-106133180D01*
X125517504Y-106133180D02*
X125555600Y-106209371D01*
X125555600Y-106209371D02*
X125593695Y-106247466D01*
X125593695Y-106247466D02*
X125669885Y-106285561D01*
X125669885Y-106285561D02*
X125746076Y-106285561D01*
X125746076Y-106285561D02*
X125822266Y-106247466D01*
X125822266Y-106247466D02*
X125860361Y-106209371D01*
X125860361Y-106209371D02*
X125898457Y-106133180D01*
X125898457Y-106133180D02*
X125936552Y-105980799D01*
X125936552Y-105980799D02*
X125974647Y-105904609D01*
X125974647Y-105904609D02*
X126012742Y-105866514D01*
X126012742Y-105866514D02*
X126088933Y-105828418D01*
X126088933Y-105828418D02*
X126165123Y-105828418D01*
X126165123Y-105828418D02*
X126241314Y-105866514D01*
X126241314Y-105866514D02*
X126279409Y-105904609D01*
X126279409Y-105904609D02*
X126317504Y-105980799D01*
X126317504Y-105980799D02*
X126317504Y-106171276D01*
X126317504Y-106171276D02*
X126279409Y-106285561D01*
X125936552Y-106628419D02*
X125936552Y-106895085D01*
X125517504Y-107009371D02*
X125517504Y-106628419D01*
X125517504Y-106628419D02*
X126317504Y-106628419D01*
X126317504Y-106628419D02*
X126317504Y-107009371D01*
X125517504Y-107352229D02*
X126317504Y-107352229D01*
X126317504Y-107352229D02*
X125517504Y-107809372D01*
X125517504Y-107809372D02*
X126317504Y-107809372D01*
X125555600Y-108152228D02*
X125517504Y-108266514D01*
X125517504Y-108266514D02*
X125517504Y-108456990D01*
X125517504Y-108456990D02*
X125555600Y-108533181D01*
X125555600Y-108533181D02*
X125593695Y-108571276D01*
X125593695Y-108571276D02*
X125669885Y-108609371D01*
X125669885Y-108609371D02*
X125746076Y-108609371D01*
X125746076Y-108609371D02*
X125822266Y-108571276D01*
X125822266Y-108571276D02*
X125860361Y-108533181D01*
X125860361Y-108533181D02*
X125898457Y-108456990D01*
X125898457Y-108456990D02*
X125936552Y-108304609D01*
X125936552Y-108304609D02*
X125974647Y-108228419D01*
X125974647Y-108228419D02*
X126012742Y-108190324D01*
X126012742Y-108190324D02*
X126088933Y-108152228D01*
X126088933Y-108152228D02*
X126165123Y-108152228D01*
X126165123Y-108152228D02*
X126241314Y-108190324D01*
X126241314Y-108190324D02*
X126279409Y-108228419D01*
X126279409Y-108228419D02*
X126317504Y-108304609D01*
X126317504Y-108304609D02*
X126317504Y-108495086D01*
X126317504Y-108495086D02*
X126279409Y-108609371D01*
X125936552Y-108952229D02*
X125936552Y-109218895D01*
X125517504Y-109333181D02*
X125517504Y-108952229D01*
X125517504Y-108952229D02*
X126317504Y-108952229D01*
X126317504Y-108952229D02*
X126317504Y-109333181D01*
X125974647Y-112699847D02*
X125974647Y-113461752D01*
X125746076Y-112852228D02*
X125746076Y-113309371D01*
X126317504Y-113080800D02*
X125974647Y-113080800D01*
X125517504Y-113156990D02*
X125517504Y-113004609D01*
D11*
X109446323Y-93453809D02*
X109112990Y-93453809D01*
X109112990Y-93977619D02*
X109112990Y-92977619D01*
X109112990Y-92977619D02*
X109589180Y-92977619D01*
X109922514Y-93930000D02*
X110065371Y-93977619D01*
X110065371Y-93977619D02*
X110303466Y-93977619D01*
X110303466Y-93977619D02*
X110398704Y-93930000D01*
X110398704Y-93930000D02*
X110446323Y-93882380D01*
X110446323Y-93882380D02*
X110493942Y-93787142D01*
X110493942Y-93787142D02*
X110493942Y-93691904D01*
X110493942Y-93691904D02*
X110446323Y-93596666D01*
X110446323Y-93596666D02*
X110398704Y-93549047D01*
X110398704Y-93549047D02*
X110303466Y-93501428D01*
X110303466Y-93501428D02*
X110112990Y-93453809D01*
X110112990Y-93453809D02*
X110017752Y-93406190D01*
X110017752Y-93406190D02*
X109970133Y-93358571D01*
X109970133Y-93358571D02*
X109922514Y-93263333D01*
X109922514Y-93263333D02*
X109922514Y-93168095D01*
X109922514Y-93168095D02*
X109970133Y-93072857D01*
X109970133Y-93072857D02*
X110017752Y-93025238D01*
X110017752Y-93025238D02*
X110112990Y-92977619D01*
X110112990Y-92977619D02*
X110351085Y-92977619D01*
X110351085Y-92977619D02*
X110493942Y-93025238D01*
X110922514Y-93977619D02*
X110922514Y-92977619D01*
X111493942Y-93977619D02*
X111065371Y-93406190D01*
X111493942Y-92977619D02*
X110922514Y-93549047D01*
X111922514Y-93596666D02*
X112684419Y-93596666D01*
X113017752Y-92977619D02*
X113589180Y-92977619D01*
X113303466Y-93977619D02*
X113303466Y-92977619D01*
X113922514Y-93977619D02*
X113922514Y-92977619D01*
X114398704Y-93977619D02*
X114398704Y-92977619D01*
X114398704Y-92977619D02*
X114732037Y-93691904D01*
X114732037Y-93691904D02*
X115065370Y-92977619D01*
X115065370Y-92977619D02*
X115065370Y-93977619D01*
X115541561Y-93453809D02*
X115874894Y-93453809D01*
X116017751Y-93977619D02*
X115541561Y-93977619D01*
X115541561Y-93977619D02*
X115541561Y-92977619D01*
X115541561Y-92977619D02*
X116017751Y-92977619D01*
X116446323Y-93977619D02*
X116446323Y-92977619D01*
X117017751Y-93977619D02*
X116589180Y-93406190D01*
X117017751Y-92977619D02*
X116446323Y-93549047D01*
X117446323Y-93453809D02*
X117779656Y-93453809D01*
X117922513Y-93977619D02*
X117446323Y-93977619D01*
X117446323Y-93977619D02*
X117446323Y-92977619D01*
X117446323Y-92977619D02*
X117922513Y-92977619D01*
X118351085Y-93453809D02*
X118684418Y-93453809D01*
X118827275Y-93977619D02*
X118351085Y-93977619D01*
X118351085Y-93977619D02*
X118351085Y-92977619D01*
X118351085Y-92977619D02*
X118827275Y-92977619D01*
X119255847Y-93977619D02*
X119255847Y-92977619D01*
X119255847Y-92977619D02*
X119636799Y-92977619D01*
X119636799Y-92977619D02*
X119732037Y-93025238D01*
X119732037Y-93025238D02*
X119779656Y-93072857D01*
X119779656Y-93072857D02*
X119827275Y-93168095D01*
X119827275Y-93168095D02*
X119827275Y-93310952D01*
X119827275Y-93310952D02*
X119779656Y-93406190D01*
X119779656Y-93406190D02*
X119732037Y-93453809D01*
X119732037Y-93453809D02*
X119636799Y-93501428D01*
X119636799Y-93501428D02*
X119255847Y-93501428D01*
X120255847Y-93453809D02*
X120589180Y-93453809D01*
X120732037Y-93977619D02*
X120255847Y-93977619D01*
X120255847Y-93977619D02*
X120255847Y-92977619D01*
X120255847Y-92977619D02*
X120732037Y-92977619D01*
X121732037Y-93977619D02*
X121398704Y-93501428D01*
X121160609Y-93977619D02*
X121160609Y-92977619D01*
X121160609Y-92977619D02*
X121541561Y-92977619D01*
X121541561Y-92977619D02*
X121636799Y-93025238D01*
X121636799Y-93025238D02*
X121684418Y-93072857D01*
X121684418Y-93072857D02*
X121732037Y-93168095D01*
X121732037Y-93168095D02*
X121732037Y-93310952D01*
X121732037Y-93310952D02*
X121684418Y-93406190D01*
X121684418Y-93406190D02*
X121636799Y-93453809D01*
X121636799Y-93453809D02*
X121541561Y-93501428D01*
X121541561Y-93501428D02*
X121160609Y-93501428D01*
X122827276Y-93310952D02*
X123065371Y-93977619D01*
X123065371Y-93977619D02*
X123303466Y-93310952D01*
X124208228Y-93977619D02*
X123636800Y-93977619D01*
X123922514Y-93977619D02*
X123922514Y-92977619D01*
X123922514Y-92977619D02*
X123827276Y-93120476D01*
X123827276Y-93120476D02*
X123732038Y-93215714D01*
X123732038Y-93215714D02*
X123636800Y-93263333D01*
X187147295Y-76050733D02*
X188671105Y-76050733D01*
D10*
X112375000Y-125772371D02*
X112089286Y-125772371D01*
X112089286Y-125772371D02*
X112089286Y-125172371D01*
X112889285Y-125772371D02*
X112546428Y-125772371D01*
X112717857Y-125772371D02*
X112717857Y-125172371D01*
X112717857Y-125172371D02*
X112660714Y-125258085D01*
X112660714Y-125258085D02*
X112603571Y-125315228D01*
X112603571Y-125315228D02*
X112546428Y-125343800D01*
X187095085Y-109981342D02*
X187380800Y-109981342D01*
X187037942Y-110152771D02*
X187237942Y-109552771D01*
X187237942Y-109552771D02*
X187437942Y-110152771D01*
X187552228Y-109552771D02*
X187895086Y-109552771D01*
X187723657Y-110152771D02*
X187723657Y-109552771D01*
X188409371Y-109581342D02*
X188352229Y-109552771D01*
X188352229Y-109552771D02*
X188266514Y-109552771D01*
X188266514Y-109552771D02*
X188180800Y-109581342D01*
X188180800Y-109581342D02*
X188123657Y-109638485D01*
X188123657Y-109638485D02*
X188095086Y-109695628D01*
X188095086Y-109695628D02*
X188066514Y-109809914D01*
X188066514Y-109809914D02*
X188066514Y-109895628D01*
X188066514Y-109895628D02*
X188095086Y-110009914D01*
X188095086Y-110009914D02*
X188123657Y-110067057D01*
X188123657Y-110067057D02*
X188180800Y-110124200D01*
X188180800Y-110124200D02*
X188266514Y-110152771D01*
X188266514Y-110152771D02*
X188323657Y-110152771D01*
X188323657Y-110152771D02*
X188409371Y-110124200D01*
X188409371Y-110124200D02*
X188437943Y-110095628D01*
X188437943Y-110095628D02*
X188437943Y-109895628D01*
X188437943Y-109895628D02*
X188323657Y-109895628D01*
X188695086Y-110152771D02*
X188695086Y-109552771D01*
X188695086Y-109552771D02*
X188895086Y-109981342D01*
X188895086Y-109981342D02*
X189095086Y-109552771D01*
X189095086Y-109552771D02*
X189095086Y-110152771D01*
X189323657Y-109552771D02*
X189695085Y-109552771D01*
X189695085Y-109552771D02*
X189495085Y-109781342D01*
X189495085Y-109781342D02*
X189580800Y-109781342D01*
X189580800Y-109781342D02*
X189637943Y-109809914D01*
X189637943Y-109809914D02*
X189666514Y-109838485D01*
X189666514Y-109838485D02*
X189695085Y-109895628D01*
X189695085Y-109895628D02*
X189695085Y-110038485D01*
X189695085Y-110038485D02*
X189666514Y-110095628D01*
X189666514Y-110095628D02*
X189637943Y-110124200D01*
X189637943Y-110124200D02*
X189580800Y-110152771D01*
X189580800Y-110152771D02*
X189409371Y-110152771D01*
X189409371Y-110152771D02*
X189352228Y-110124200D01*
X189352228Y-110124200D02*
X189323657Y-110095628D01*
X189895086Y-109552771D02*
X190266514Y-109552771D01*
X190266514Y-109552771D02*
X190066514Y-109781342D01*
X190066514Y-109781342D02*
X190152229Y-109781342D01*
X190152229Y-109781342D02*
X190209372Y-109809914D01*
X190209372Y-109809914D02*
X190237943Y-109838485D01*
X190237943Y-109838485D02*
X190266514Y-109895628D01*
X190266514Y-109895628D02*
X190266514Y-110038485D01*
X190266514Y-110038485D02*
X190237943Y-110095628D01*
X190237943Y-110095628D02*
X190209372Y-110124200D01*
X190209372Y-110124200D02*
X190152229Y-110152771D01*
X190152229Y-110152771D02*
X189980800Y-110152771D01*
X189980800Y-110152771D02*
X189923657Y-110124200D01*
X189923657Y-110124200D02*
X189895086Y-110095628D01*
X190780801Y-109552771D02*
X190666515Y-109552771D01*
X190666515Y-109552771D02*
X190609372Y-109581342D01*
X190609372Y-109581342D02*
X190580801Y-109609914D01*
X190580801Y-109609914D02*
X190523658Y-109695628D01*
X190523658Y-109695628D02*
X190495086Y-109809914D01*
X190495086Y-109809914D02*
X190495086Y-110038485D01*
X190495086Y-110038485D02*
X190523658Y-110095628D01*
X190523658Y-110095628D02*
X190552229Y-110124200D01*
X190552229Y-110124200D02*
X190609372Y-110152771D01*
X190609372Y-110152771D02*
X190723658Y-110152771D01*
X190723658Y-110152771D02*
X190780801Y-110124200D01*
X190780801Y-110124200D02*
X190809372Y-110095628D01*
X190809372Y-110095628D02*
X190837943Y-110038485D01*
X190837943Y-110038485D02*
X190837943Y-109895628D01*
X190837943Y-109895628D02*
X190809372Y-109838485D01*
X190809372Y-109838485D02*
X190780801Y-109809914D01*
X190780801Y-109809914D02*
X190723658Y-109781342D01*
X190723658Y-109781342D02*
X190609372Y-109781342D01*
X190609372Y-109781342D02*
X190552229Y-109809914D01*
X190552229Y-109809914D02*
X190523658Y-109838485D01*
X190523658Y-109838485D02*
X190495086Y-109895628D01*
X191095087Y-110152771D02*
X191095087Y-109552771D01*
X191095087Y-109838485D02*
X191437944Y-109838485D01*
X191437944Y-110152771D02*
X191437944Y-109552771D01*
X103516342Y-93868200D02*
X103602057Y-93896771D01*
X103602057Y-93896771D02*
X103744914Y-93896771D01*
X103744914Y-93896771D02*
X103802057Y-93868200D01*
X103802057Y-93868200D02*
X103830628Y-93839628D01*
X103830628Y-93839628D02*
X103859199Y-93782485D01*
X103859199Y-93782485D02*
X103859199Y-93725342D01*
X103859199Y-93725342D02*
X103830628Y-93668200D01*
X103830628Y-93668200D02*
X103802057Y-93639628D01*
X103802057Y-93639628D02*
X103744914Y-93611057D01*
X103744914Y-93611057D02*
X103630628Y-93582485D01*
X103630628Y-93582485D02*
X103573485Y-93553914D01*
X103573485Y-93553914D02*
X103544914Y-93525342D01*
X103544914Y-93525342D02*
X103516342Y-93468200D01*
X103516342Y-93468200D02*
X103516342Y-93411057D01*
X103516342Y-93411057D02*
X103544914Y-93353914D01*
X103544914Y-93353914D02*
X103573485Y-93325342D01*
X103573485Y-93325342D02*
X103630628Y-93296771D01*
X103630628Y-93296771D02*
X103773485Y-93296771D01*
X103773485Y-93296771D02*
X103859199Y-93325342D01*
X104059200Y-93296771D02*
X104202057Y-93896771D01*
X104202057Y-93896771D02*
X104316343Y-93468200D01*
X104316343Y-93468200D02*
X104430628Y-93896771D01*
X104430628Y-93896771D02*
X104573486Y-93296771D01*
X104659200Y-93953914D02*
X105116342Y-93953914D01*
X105230628Y-93868200D02*
X105316343Y-93896771D01*
X105316343Y-93896771D02*
X105459200Y-93896771D01*
X105459200Y-93896771D02*
X105516343Y-93868200D01*
X105516343Y-93868200D02*
X105544914Y-93839628D01*
X105544914Y-93839628D02*
X105573485Y-93782485D01*
X105573485Y-93782485D02*
X105573485Y-93725342D01*
X105573485Y-93725342D02*
X105544914Y-93668200D01*
X105544914Y-93668200D02*
X105516343Y-93639628D01*
X105516343Y-93639628D02*
X105459200Y-93611057D01*
X105459200Y-93611057D02*
X105344914Y-93582485D01*
X105344914Y-93582485D02*
X105287771Y-93553914D01*
X105287771Y-93553914D02*
X105259200Y-93525342D01*
X105259200Y-93525342D02*
X105230628Y-93468200D01*
X105230628Y-93468200D02*
X105230628Y-93411057D01*
X105230628Y-93411057D02*
X105259200Y-93353914D01*
X105259200Y-93353914D02*
X105287771Y-93325342D01*
X105287771Y-93325342D02*
X105344914Y-93296771D01*
X105344914Y-93296771D02*
X105487771Y-93296771D01*
X105487771Y-93296771D02*
X105573485Y-93325342D01*
X105830629Y-93896771D02*
X105830629Y-93296771D01*
X105830629Y-93296771D02*
X106059200Y-93296771D01*
X106059200Y-93296771D02*
X106116343Y-93325342D01*
X106116343Y-93325342D02*
X106144914Y-93353914D01*
X106144914Y-93353914D02*
X106173486Y-93411057D01*
X106173486Y-93411057D02*
X106173486Y-93496771D01*
X106173486Y-93496771D02*
X106144914Y-93553914D01*
X106144914Y-93553914D02*
X106116343Y-93582485D01*
X106116343Y-93582485D02*
X106059200Y-93611057D01*
X106059200Y-93611057D02*
X105830629Y-93611057D01*
X106402057Y-93868200D02*
X106487772Y-93896771D01*
X106487772Y-93896771D02*
X106630629Y-93896771D01*
X106630629Y-93896771D02*
X106687772Y-93868200D01*
X106687772Y-93868200D02*
X106716343Y-93839628D01*
X106716343Y-93839628D02*
X106744914Y-93782485D01*
X106744914Y-93782485D02*
X106744914Y-93725342D01*
X106744914Y-93725342D02*
X106716343Y-93668200D01*
X106716343Y-93668200D02*
X106687772Y-93639628D01*
X106687772Y-93639628D02*
X106630629Y-93611057D01*
X106630629Y-93611057D02*
X106516343Y-93582485D01*
X106516343Y-93582485D02*
X106459200Y-93553914D01*
X106459200Y-93553914D02*
X106430629Y-93525342D01*
X106430629Y-93525342D02*
X106402057Y-93468200D01*
X106402057Y-93468200D02*
X106402057Y-93411057D01*
X106402057Y-93411057D02*
X106430629Y-93353914D01*
X106430629Y-93353914D02*
X106459200Y-93325342D01*
X106459200Y-93325342D02*
X106516343Y-93296771D01*
X106516343Y-93296771D02*
X106659200Y-93296771D01*
X106659200Y-93296771D02*
X106744914Y-93325342D01*
X106916343Y-93296771D02*
X107259201Y-93296771D01*
X107087772Y-93896771D02*
X107087772Y-93296771D01*
X177886976Y-109806729D02*
X177858404Y-109835301D01*
X177858404Y-109835301D02*
X177772690Y-109863872D01*
X177772690Y-109863872D02*
X177715547Y-109863872D01*
X177715547Y-109863872D02*
X177629833Y-109835301D01*
X177629833Y-109835301D02*
X177572690Y-109778158D01*
X177572690Y-109778158D02*
X177544119Y-109721015D01*
X177544119Y-109721015D02*
X177515547Y-109606729D01*
X177515547Y-109606729D02*
X177515547Y-109521015D01*
X177515547Y-109521015D02*
X177544119Y-109406729D01*
X177544119Y-109406729D02*
X177572690Y-109349586D01*
X177572690Y-109349586D02*
X177629833Y-109292443D01*
X177629833Y-109292443D02*
X177715547Y-109263872D01*
X177715547Y-109263872D02*
X177772690Y-109263872D01*
X177772690Y-109263872D02*
X177858404Y-109292443D01*
X177858404Y-109292443D02*
X177886976Y-109321015D01*
X178458404Y-109863872D02*
X178115547Y-109863872D01*
X178286976Y-109863872D02*
X178286976Y-109263872D01*
X178286976Y-109263872D02*
X178229833Y-109349586D01*
X178229833Y-109349586D02*
X178172690Y-109406729D01*
X178172690Y-109406729D02*
X178115547Y-109435301D01*
X124907000Y-123018342D02*
X124935571Y-122932628D01*
X124935571Y-122932628D02*
X124935571Y-122789770D01*
X124935571Y-122789770D02*
X124907000Y-122732628D01*
X124907000Y-122732628D02*
X124878428Y-122704056D01*
X124878428Y-122704056D02*
X124821285Y-122675485D01*
X124821285Y-122675485D02*
X124764142Y-122675485D01*
X124764142Y-122675485D02*
X124707000Y-122704056D01*
X124707000Y-122704056D02*
X124678428Y-122732628D01*
X124678428Y-122732628D02*
X124649857Y-122789770D01*
X124649857Y-122789770D02*
X124621285Y-122904056D01*
X124621285Y-122904056D02*
X124592714Y-122961199D01*
X124592714Y-122961199D02*
X124564142Y-122989770D01*
X124564142Y-122989770D02*
X124507000Y-123018342D01*
X124507000Y-123018342D02*
X124449857Y-123018342D01*
X124449857Y-123018342D02*
X124392714Y-122989770D01*
X124392714Y-122989770D02*
X124364142Y-122961199D01*
X124364142Y-122961199D02*
X124335571Y-122904056D01*
X124335571Y-122904056D02*
X124335571Y-122761199D01*
X124335571Y-122761199D02*
X124364142Y-122675485D01*
X124621285Y-122418341D02*
X124621285Y-122218341D01*
X124935571Y-122132627D02*
X124935571Y-122418341D01*
X124935571Y-122418341D02*
X124335571Y-122418341D01*
X124335571Y-122418341D02*
X124335571Y-122132627D01*
X124935571Y-121875484D02*
X124335571Y-121875484D01*
X124335571Y-121875484D02*
X124935571Y-121532627D01*
X124935571Y-121532627D02*
X124335571Y-121532627D01*
X124907000Y-121275485D02*
X124935571Y-121189771D01*
X124935571Y-121189771D02*
X124935571Y-121046913D01*
X124935571Y-121046913D02*
X124907000Y-120989771D01*
X124907000Y-120989771D02*
X124878428Y-120961199D01*
X124878428Y-120961199D02*
X124821285Y-120932628D01*
X124821285Y-120932628D02*
X124764142Y-120932628D01*
X124764142Y-120932628D02*
X124707000Y-120961199D01*
X124707000Y-120961199D02*
X124678428Y-120989771D01*
X124678428Y-120989771D02*
X124649857Y-121046913D01*
X124649857Y-121046913D02*
X124621285Y-121161199D01*
X124621285Y-121161199D02*
X124592714Y-121218342D01*
X124592714Y-121218342D02*
X124564142Y-121246913D01*
X124564142Y-121246913D02*
X124507000Y-121275485D01*
X124507000Y-121275485D02*
X124449857Y-121275485D01*
X124449857Y-121275485D02*
X124392714Y-121246913D01*
X124392714Y-121246913D02*
X124364142Y-121218342D01*
X124364142Y-121218342D02*
X124335571Y-121161199D01*
X124335571Y-121161199D02*
X124335571Y-121018342D01*
X124335571Y-121018342D02*
X124364142Y-120932628D01*
X124335571Y-120561199D02*
X124335571Y-120446913D01*
X124335571Y-120446913D02*
X124364142Y-120389770D01*
X124364142Y-120389770D02*
X124421285Y-120332627D01*
X124421285Y-120332627D02*
X124535571Y-120304056D01*
X124535571Y-120304056D02*
X124735571Y-120304056D01*
X124735571Y-120304056D02*
X124849857Y-120332627D01*
X124849857Y-120332627D02*
X124907000Y-120389770D01*
X124907000Y-120389770D02*
X124935571Y-120446913D01*
X124935571Y-120446913D02*
X124935571Y-120561199D01*
X124935571Y-120561199D02*
X124907000Y-120618342D01*
X124907000Y-120618342D02*
X124849857Y-120675484D01*
X124849857Y-120675484D02*
X124735571Y-120704056D01*
X124735571Y-120704056D02*
X124535571Y-120704056D01*
X124535571Y-120704056D02*
X124421285Y-120675484D01*
X124421285Y-120675484D02*
X124364142Y-120618342D01*
X124364142Y-120618342D02*
X124335571Y-120561199D01*
X124935571Y-119704056D02*
X124649857Y-119904056D01*
X124935571Y-120046913D02*
X124335571Y-120046913D01*
X124335571Y-120046913D02*
X124335571Y-119818342D01*
X124335571Y-119818342D02*
X124364142Y-119761199D01*
X124364142Y-119761199D02*
X124392714Y-119732628D01*
X124392714Y-119732628D02*
X124449857Y-119704056D01*
X124449857Y-119704056D02*
X124535571Y-119704056D01*
X124535571Y-119704056D02*
X124592714Y-119732628D01*
X124592714Y-119732628D02*
X124621285Y-119761199D01*
X124621285Y-119761199D02*
X124649857Y-119818342D01*
X124649857Y-119818342D02*
X124649857Y-120046913D01*
X176568600Y-93433228D02*
X176540028Y-93461800D01*
X176540028Y-93461800D02*
X176454314Y-93490371D01*
X176454314Y-93490371D02*
X176397171Y-93490371D01*
X176397171Y-93490371D02*
X176311457Y-93461800D01*
X176311457Y-93461800D02*
X176254314Y-93404657D01*
X176254314Y-93404657D02*
X176225743Y-93347514D01*
X176225743Y-93347514D02*
X176197171Y-93233228D01*
X176197171Y-93233228D02*
X176197171Y-93147514D01*
X176197171Y-93147514D02*
X176225743Y-93033228D01*
X176225743Y-93033228D02*
X176254314Y-92976085D01*
X176254314Y-92976085D02*
X176311457Y-92918942D01*
X176311457Y-92918942D02*
X176397171Y-92890371D01*
X176397171Y-92890371D02*
X176454314Y-92890371D01*
X176454314Y-92890371D02*
X176540028Y-92918942D01*
X176540028Y-92918942D02*
X176568600Y-92947514D01*
X176768600Y-92890371D02*
X177168600Y-92890371D01*
X177168600Y-92890371D02*
X176911457Y-93490371D01*
X133089985Y-99902213D02*
X133089985Y-99302213D01*
X133089985Y-99302213D02*
X133232842Y-99302213D01*
X133232842Y-99302213D02*
X133318556Y-99330784D01*
X133318556Y-99330784D02*
X133375699Y-99387927D01*
X133375699Y-99387927D02*
X133404270Y-99445070D01*
X133404270Y-99445070D02*
X133432842Y-99559356D01*
X133432842Y-99559356D02*
X133432842Y-99645070D01*
X133432842Y-99645070D02*
X133404270Y-99759356D01*
X133404270Y-99759356D02*
X133375699Y-99816499D01*
X133375699Y-99816499D02*
X133318556Y-99873642D01*
X133318556Y-99873642D02*
X133232842Y-99902213D01*
X133232842Y-99902213D02*
X133089985Y-99902213D01*
X133661413Y-99359356D02*
X133689985Y-99330784D01*
X133689985Y-99330784D02*
X133747128Y-99302213D01*
X133747128Y-99302213D02*
X133889985Y-99302213D01*
X133889985Y-99302213D02*
X133947128Y-99330784D01*
X133947128Y-99330784D02*
X133975699Y-99359356D01*
X133975699Y-99359356D02*
X134004270Y-99416499D01*
X134004270Y-99416499D02*
X134004270Y-99473642D01*
X134004270Y-99473642D02*
X133975699Y-99559356D01*
X133975699Y-99559356D02*
X133632842Y-99902213D01*
X133632842Y-99902213D02*
X134004270Y-99902213D01*
X157571400Y-125802458D02*
X157599971Y-125716744D01*
X157599971Y-125716744D02*
X157599971Y-125573886D01*
X157599971Y-125573886D02*
X157571400Y-125516744D01*
X157571400Y-125516744D02*
X157542828Y-125488172D01*
X157542828Y-125488172D02*
X157485685Y-125459601D01*
X157485685Y-125459601D02*
X157428542Y-125459601D01*
X157428542Y-125459601D02*
X157371400Y-125488172D01*
X157371400Y-125488172D02*
X157342828Y-125516744D01*
X157342828Y-125516744D02*
X157314257Y-125573886D01*
X157314257Y-125573886D02*
X157285685Y-125688172D01*
X157285685Y-125688172D02*
X157257114Y-125745315D01*
X157257114Y-125745315D02*
X157228542Y-125773886D01*
X157228542Y-125773886D02*
X157171400Y-125802458D01*
X157171400Y-125802458D02*
X157114257Y-125802458D01*
X157114257Y-125802458D02*
X157057114Y-125773886D01*
X157057114Y-125773886D02*
X157028542Y-125745315D01*
X157028542Y-125745315D02*
X156999971Y-125688172D01*
X156999971Y-125688172D02*
X156999971Y-125545315D01*
X156999971Y-125545315D02*
X157028542Y-125459601D01*
X157199971Y-124945315D02*
X157599971Y-124945315D01*
X157199971Y-125202457D02*
X157514257Y-125202457D01*
X157514257Y-125202457D02*
X157571400Y-125173886D01*
X157571400Y-125173886D02*
X157599971Y-125116743D01*
X157599971Y-125116743D02*
X157599971Y-125031029D01*
X157599971Y-125031029D02*
X157571400Y-124973886D01*
X157571400Y-124973886D02*
X157542828Y-124945315D01*
X157199971Y-124659600D02*
X157799971Y-124659600D01*
X157228542Y-124659600D02*
X157199971Y-124602458D01*
X157199971Y-124602458D02*
X157199971Y-124488172D01*
X157199971Y-124488172D02*
X157228542Y-124431029D01*
X157228542Y-124431029D02*
X157257114Y-124402458D01*
X157257114Y-124402458D02*
X157314257Y-124373886D01*
X157314257Y-124373886D02*
X157485685Y-124373886D01*
X157485685Y-124373886D02*
X157542828Y-124402458D01*
X157542828Y-124402458D02*
X157571400Y-124431029D01*
X157571400Y-124431029D02*
X157599971Y-124488172D01*
X157599971Y-124488172D02*
X157599971Y-124602458D01*
X157599971Y-124602458D02*
X157571400Y-124659600D01*
X157571400Y-123888172D02*
X157599971Y-123945315D01*
X157599971Y-123945315D02*
X157599971Y-124059601D01*
X157599971Y-124059601D02*
X157571400Y-124116743D01*
X157571400Y-124116743D02*
X157514257Y-124145315D01*
X157514257Y-124145315D02*
X157285685Y-124145315D01*
X157285685Y-124145315D02*
X157228542Y-124116743D01*
X157228542Y-124116743D02*
X157199971Y-124059601D01*
X157199971Y-124059601D02*
X157199971Y-123945315D01*
X157199971Y-123945315D02*
X157228542Y-123888172D01*
X157228542Y-123888172D02*
X157285685Y-123859601D01*
X157285685Y-123859601D02*
X157342828Y-123859601D01*
X157342828Y-123859601D02*
X157399971Y-124145315D01*
X157599971Y-123602457D02*
X157199971Y-123602457D01*
X157314257Y-123602457D02*
X157257114Y-123573886D01*
X157257114Y-123573886D02*
X157228542Y-123545315D01*
X157228542Y-123545315D02*
X157199971Y-123488172D01*
X157199971Y-123488172D02*
X157199971Y-123431029D01*
X157599971Y-123231028D02*
X156999971Y-123231028D01*
X156999971Y-123231028D02*
X157428542Y-123031028D01*
X157428542Y-123031028D02*
X156999971Y-122831028D01*
X156999971Y-122831028D02*
X157599971Y-122831028D01*
X157599971Y-122545314D02*
X157199971Y-122545314D01*
X156999971Y-122545314D02*
X157028542Y-122573886D01*
X157028542Y-122573886D02*
X157057114Y-122545314D01*
X157057114Y-122545314D02*
X157028542Y-122516743D01*
X157028542Y-122516743D02*
X156999971Y-122545314D01*
X156999971Y-122545314D02*
X157057114Y-122545314D01*
X157199971Y-122259600D02*
X157599971Y-122259600D01*
X157257114Y-122259600D02*
X157228542Y-122231029D01*
X157228542Y-122231029D02*
X157199971Y-122173886D01*
X157199971Y-122173886D02*
X157199971Y-122088172D01*
X157199971Y-122088172D02*
X157228542Y-122031029D01*
X157228542Y-122031029D02*
X157285685Y-122002458D01*
X157285685Y-122002458D02*
X157599971Y-122002458D01*
X157599971Y-121716743D02*
X157199971Y-121716743D01*
X156999971Y-121716743D02*
X157028542Y-121745315D01*
X157028542Y-121745315D02*
X157057114Y-121716743D01*
X157057114Y-121716743D02*
X157028542Y-121688172D01*
X157028542Y-121688172D02*
X156999971Y-121716743D01*
X156999971Y-121716743D02*
X157057114Y-121716743D01*
X157199971Y-120973886D02*
X157599971Y-120973886D01*
X157257114Y-120973886D02*
X157228542Y-120945315D01*
X157228542Y-120945315D02*
X157199971Y-120888172D01*
X157199971Y-120888172D02*
X157199971Y-120802458D01*
X157199971Y-120802458D02*
X157228542Y-120745315D01*
X157228542Y-120745315D02*
X157285685Y-120716744D01*
X157285685Y-120716744D02*
X157599971Y-120716744D01*
X157599971Y-120088172D02*
X157314257Y-120288172D01*
X157599971Y-120431029D02*
X156999971Y-120431029D01*
X156999971Y-120431029D02*
X156999971Y-120202458D01*
X156999971Y-120202458D02*
X157028542Y-120145315D01*
X157028542Y-120145315D02*
X157057114Y-120116744D01*
X157057114Y-120116744D02*
X157114257Y-120088172D01*
X157114257Y-120088172D02*
X157199971Y-120088172D01*
X157199971Y-120088172D02*
X157257114Y-120116744D01*
X157257114Y-120116744D02*
X157285685Y-120145315D01*
X157285685Y-120145315D02*
X157314257Y-120202458D01*
X157314257Y-120202458D02*
X157314257Y-120431029D01*
X157285685Y-119631029D02*
X157285685Y-119831029D01*
X157599971Y-119831029D02*
X156999971Y-119831029D01*
X156999971Y-119831029D02*
X156999971Y-119545315D01*
X156999971Y-119031029D02*
X156999971Y-119316743D01*
X156999971Y-119316743D02*
X157285685Y-119345315D01*
X157285685Y-119345315D02*
X157257114Y-119316743D01*
X157257114Y-119316743D02*
X157228542Y-119259601D01*
X157228542Y-119259601D02*
X157228542Y-119116743D01*
X157228542Y-119116743D02*
X157257114Y-119059601D01*
X157257114Y-119059601D02*
X157285685Y-119031029D01*
X157285685Y-119031029D02*
X157342828Y-119002458D01*
X157342828Y-119002458D02*
X157485685Y-119002458D01*
X157485685Y-119002458D02*
X157542828Y-119031029D01*
X157542828Y-119031029D02*
X157571400Y-119059601D01*
X157571400Y-119059601D02*
X157599971Y-119116743D01*
X157599971Y-119116743D02*
X157599971Y-119259601D01*
X157599971Y-119259601D02*
X157571400Y-119316743D01*
X157571400Y-119316743D02*
X157542828Y-119345315D01*
X157057114Y-118773886D02*
X157028542Y-118745314D01*
X157028542Y-118745314D02*
X156999971Y-118688172D01*
X156999971Y-118688172D02*
X156999971Y-118545314D01*
X156999971Y-118545314D02*
X157028542Y-118488172D01*
X157028542Y-118488172D02*
X157057114Y-118459600D01*
X157057114Y-118459600D02*
X157114257Y-118431029D01*
X157114257Y-118431029D02*
X157171400Y-118431029D01*
X157171400Y-118431029D02*
X157257114Y-118459600D01*
X157257114Y-118459600D02*
X157599971Y-118802457D01*
X157599971Y-118802457D02*
X157599971Y-118431029D01*
X157257114Y-118088171D02*
X157228542Y-118145314D01*
X157228542Y-118145314D02*
X157199971Y-118173885D01*
X157199971Y-118173885D02*
X157142828Y-118202457D01*
X157142828Y-118202457D02*
X157114257Y-118202457D01*
X157114257Y-118202457D02*
X157057114Y-118173885D01*
X157057114Y-118173885D02*
X157028542Y-118145314D01*
X157028542Y-118145314D02*
X156999971Y-118088171D01*
X156999971Y-118088171D02*
X156999971Y-117973885D01*
X156999971Y-117973885D02*
X157028542Y-117916743D01*
X157028542Y-117916743D02*
X157057114Y-117888171D01*
X157057114Y-117888171D02*
X157114257Y-117859600D01*
X157114257Y-117859600D02*
X157142828Y-117859600D01*
X157142828Y-117859600D02*
X157199971Y-117888171D01*
X157199971Y-117888171D02*
X157228542Y-117916743D01*
X157228542Y-117916743D02*
X157257114Y-117973885D01*
X157257114Y-117973885D02*
X157257114Y-118088171D01*
X157257114Y-118088171D02*
X157285685Y-118145314D01*
X157285685Y-118145314D02*
X157314257Y-118173885D01*
X157314257Y-118173885D02*
X157371400Y-118202457D01*
X157371400Y-118202457D02*
X157485685Y-118202457D01*
X157485685Y-118202457D02*
X157542828Y-118173885D01*
X157542828Y-118173885D02*
X157571400Y-118145314D01*
X157571400Y-118145314D02*
X157599971Y-118088171D01*
X157599971Y-118088171D02*
X157599971Y-117973885D01*
X157599971Y-117973885D02*
X157571400Y-117916743D01*
X157571400Y-117916743D02*
X157542828Y-117888171D01*
X157542828Y-117888171D02*
X157485685Y-117859600D01*
X157485685Y-117859600D02*
X157371400Y-117859600D01*
X157371400Y-117859600D02*
X157314257Y-117888171D01*
X157314257Y-117888171D02*
X157285685Y-117916743D01*
X157285685Y-117916743D02*
X157257114Y-117973885D01*
X157199971Y-117345314D02*
X157599971Y-117345314D01*
X156971400Y-117488171D02*
X157399971Y-117631028D01*
X157399971Y-117631028D02*
X157399971Y-117259599D01*
X156999971Y-116916742D02*
X156999971Y-116859599D01*
X156999971Y-116859599D02*
X157028542Y-116802456D01*
X157028542Y-116802456D02*
X157057114Y-116773885D01*
X157057114Y-116773885D02*
X157114257Y-116745313D01*
X157114257Y-116745313D02*
X157228542Y-116716742D01*
X157228542Y-116716742D02*
X157371400Y-116716742D01*
X157371400Y-116716742D02*
X157485685Y-116745313D01*
X157485685Y-116745313D02*
X157542828Y-116773885D01*
X157542828Y-116773885D02*
X157571400Y-116802456D01*
X157571400Y-116802456D02*
X157599971Y-116859599D01*
X157599971Y-116859599D02*
X157599971Y-116916742D01*
X157599971Y-116916742D02*
X157571400Y-116973885D01*
X157571400Y-116973885D02*
X157542828Y-117002456D01*
X157542828Y-117002456D02*
X157485685Y-117031027D01*
X157485685Y-117031027D02*
X157371400Y-117059599D01*
X157371400Y-117059599D02*
X157228542Y-117059599D01*
X157228542Y-117059599D02*
X157114257Y-117031027D01*
X157114257Y-117031027D02*
X157057114Y-117002456D01*
X157057114Y-117002456D02*
X157028542Y-116973885D01*
X157028542Y-116973885D02*
X156999971Y-116916742D01*
X116888200Y-114417628D02*
X116859628Y-114446200D01*
X116859628Y-114446200D02*
X116773914Y-114474771D01*
X116773914Y-114474771D02*
X116716771Y-114474771D01*
X116716771Y-114474771D02*
X116631057Y-114446200D01*
X116631057Y-114446200D02*
X116573914Y-114389057D01*
X116573914Y-114389057D02*
X116545343Y-114331914D01*
X116545343Y-114331914D02*
X116516771Y-114217628D01*
X116516771Y-114217628D02*
X116516771Y-114131914D01*
X116516771Y-114131914D02*
X116545343Y-114017628D01*
X116545343Y-114017628D02*
X116573914Y-113960485D01*
X116573914Y-113960485D02*
X116631057Y-113903342D01*
X116631057Y-113903342D02*
X116716771Y-113874771D01*
X116716771Y-113874771D02*
X116773914Y-113874771D01*
X116773914Y-113874771D02*
X116859628Y-113903342D01*
X116859628Y-113903342D02*
X116888200Y-113931914D01*
X117402486Y-114074771D02*
X117402486Y-114474771D01*
X117259628Y-113846200D02*
X117116771Y-114274771D01*
X117116771Y-114274771D02*
X117488200Y-114274771D01*
X130506800Y-100653171D02*
X130306800Y-100367457D01*
X130163943Y-100653171D02*
X130163943Y-100053171D01*
X130163943Y-100053171D02*
X130392514Y-100053171D01*
X130392514Y-100053171D02*
X130449657Y-100081742D01*
X130449657Y-100081742D02*
X130478228Y-100110314D01*
X130478228Y-100110314D02*
X130506800Y-100167457D01*
X130506800Y-100167457D02*
X130506800Y-100253171D01*
X130506800Y-100253171D02*
X130478228Y-100310314D01*
X130478228Y-100310314D02*
X130449657Y-100338885D01*
X130449657Y-100338885D02*
X130392514Y-100367457D01*
X130392514Y-100367457D02*
X130163943Y-100367457D01*
X131021086Y-100253171D02*
X131021086Y-100653171D01*
X130878228Y-100024600D02*
X130735371Y-100453171D01*
X130735371Y-100453171D02*
X131106800Y-100453171D01*
X116900000Y-112762371D02*
X116700000Y-112476657D01*
X116557143Y-112762371D02*
X116557143Y-112162371D01*
X116557143Y-112162371D02*
X116785714Y-112162371D01*
X116785714Y-112162371D02*
X116842857Y-112190942D01*
X116842857Y-112190942D02*
X116871428Y-112219514D01*
X116871428Y-112219514D02*
X116900000Y-112276657D01*
X116900000Y-112276657D02*
X116900000Y-112362371D01*
X116900000Y-112362371D02*
X116871428Y-112419514D01*
X116871428Y-112419514D02*
X116842857Y-112448085D01*
X116842857Y-112448085D02*
X116785714Y-112476657D01*
X116785714Y-112476657D02*
X116557143Y-112476657D01*
X117471428Y-112762371D02*
X117128571Y-112762371D01*
X117300000Y-112762371D02*
X117300000Y-112162371D01*
X117300000Y-112162371D02*
X117242857Y-112248085D01*
X117242857Y-112248085D02*
X117185714Y-112305228D01*
X117185714Y-112305228D02*
X117128571Y-112333800D01*
X107443600Y-113702428D02*
X107415028Y-113731000D01*
X107415028Y-113731000D02*
X107329314Y-113759571D01*
X107329314Y-113759571D02*
X107272171Y-113759571D01*
X107272171Y-113759571D02*
X107186457Y-113731000D01*
X107186457Y-113731000D02*
X107129314Y-113673857D01*
X107129314Y-113673857D02*
X107100743Y-113616714D01*
X107100743Y-113616714D02*
X107072171Y-113502428D01*
X107072171Y-113502428D02*
X107072171Y-113416714D01*
X107072171Y-113416714D02*
X107100743Y-113302428D01*
X107100743Y-113302428D02*
X107129314Y-113245285D01*
X107129314Y-113245285D02*
X107186457Y-113188142D01*
X107186457Y-113188142D02*
X107272171Y-113159571D01*
X107272171Y-113159571D02*
X107329314Y-113159571D01*
X107329314Y-113159571D02*
X107415028Y-113188142D01*
X107415028Y-113188142D02*
X107443600Y-113216714D01*
X107643600Y-113159571D02*
X108015028Y-113159571D01*
X108015028Y-113159571D02*
X107815028Y-113388142D01*
X107815028Y-113388142D02*
X107900743Y-113388142D01*
X107900743Y-113388142D02*
X107957886Y-113416714D01*
X107957886Y-113416714D02*
X107986457Y-113445285D01*
X107986457Y-113445285D02*
X108015028Y-113502428D01*
X108015028Y-113502428D02*
X108015028Y-113645285D01*
X108015028Y-113645285D02*
X107986457Y-113702428D01*
X107986457Y-113702428D02*
X107957886Y-113731000D01*
X107957886Y-113731000D02*
X107900743Y-113759571D01*
X107900743Y-113759571D02*
X107729314Y-113759571D01*
X107729314Y-113759571D02*
X107672171Y-113731000D01*
X107672171Y-113731000D02*
X107643600Y-113702428D01*
X187393371Y-85388085D02*
X187479085Y-85416657D01*
X187479085Y-85416657D02*
X187507656Y-85445228D01*
X187507656Y-85445228D02*
X187536228Y-85502371D01*
X187536228Y-85502371D02*
X187536228Y-85588085D01*
X187536228Y-85588085D02*
X187507656Y-85645228D01*
X187507656Y-85645228D02*
X187479085Y-85673800D01*
X187479085Y-85673800D02*
X187421942Y-85702371D01*
X187421942Y-85702371D02*
X187193371Y-85702371D01*
X187193371Y-85702371D02*
X187193371Y-85102371D01*
X187193371Y-85102371D02*
X187393371Y-85102371D01*
X187393371Y-85102371D02*
X187450514Y-85130942D01*
X187450514Y-85130942D02*
X187479085Y-85159514D01*
X187479085Y-85159514D02*
X187507656Y-85216657D01*
X187507656Y-85216657D02*
X187507656Y-85273800D01*
X187507656Y-85273800D02*
X187479085Y-85330942D01*
X187479085Y-85330942D02*
X187450514Y-85359514D01*
X187450514Y-85359514D02*
X187393371Y-85388085D01*
X187393371Y-85388085D02*
X187193371Y-85388085D01*
X187707656Y-85102371D02*
X188050514Y-85102371D01*
X187879085Y-85702371D02*
X187879085Y-85102371D01*
X188564799Y-85702371D02*
X188221942Y-85702371D01*
X188393371Y-85702371D02*
X188393371Y-85102371D01*
X188393371Y-85102371D02*
X188336228Y-85188085D01*
X188336228Y-85188085D02*
X188279085Y-85245228D01*
X188279085Y-85245228D02*
X188221942Y-85273800D01*
D11*
X105918095Y-75593533D02*
X107441905Y-75593533D01*
X106680000Y-76355438D02*
X106680000Y-74831628D01*
D10*
X119456843Y-122372371D02*
X119456843Y-121772371D01*
X119456843Y-121772371D02*
X119599700Y-121772371D01*
X119599700Y-121772371D02*
X119685414Y-121800942D01*
X119685414Y-121800942D02*
X119742557Y-121858085D01*
X119742557Y-121858085D02*
X119771128Y-121915228D01*
X119771128Y-121915228D02*
X119799700Y-122029514D01*
X119799700Y-122029514D02*
X119799700Y-122115228D01*
X119799700Y-122115228D02*
X119771128Y-122229514D01*
X119771128Y-122229514D02*
X119742557Y-122286657D01*
X119742557Y-122286657D02*
X119685414Y-122343800D01*
X119685414Y-122343800D02*
X119599700Y-122372371D01*
X119599700Y-122372371D02*
X119456843Y-122372371D01*
X120371128Y-122372371D02*
X120028271Y-122372371D01*
X120199700Y-122372371D02*
X120199700Y-121772371D01*
X120199700Y-121772371D02*
X120142557Y-121858085D01*
X120142557Y-121858085D02*
X120085414Y-121915228D01*
X120085414Y-121915228D02*
X120028271Y-121943800D01*
X112979257Y-116004371D02*
X112979257Y-116490085D01*
X112979257Y-116490085D02*
X113007828Y-116547228D01*
X113007828Y-116547228D02*
X113036400Y-116575800D01*
X113036400Y-116575800D02*
X113093542Y-116604371D01*
X113093542Y-116604371D02*
X113207828Y-116604371D01*
X113207828Y-116604371D02*
X113264971Y-116575800D01*
X113264971Y-116575800D02*
X113293542Y-116547228D01*
X113293542Y-116547228D02*
X113322114Y-116490085D01*
X113322114Y-116490085D02*
X113322114Y-116004371D01*
X113550685Y-116004371D02*
X113922113Y-116004371D01*
X113922113Y-116004371D02*
X113722113Y-116232942D01*
X113722113Y-116232942D02*
X113807828Y-116232942D01*
X113807828Y-116232942D02*
X113864971Y-116261514D01*
X113864971Y-116261514D02*
X113893542Y-116290085D01*
X113893542Y-116290085D02*
X113922113Y-116347228D01*
X113922113Y-116347228D02*
X113922113Y-116490085D01*
X113922113Y-116490085D02*
X113893542Y-116547228D01*
X113893542Y-116547228D02*
X113864971Y-116575800D01*
X113864971Y-116575800D02*
X113807828Y-116604371D01*
X113807828Y-116604371D02*
X113636399Y-116604371D01*
X113636399Y-116604371D02*
X113579256Y-116575800D01*
X113579256Y-116575800D02*
X113550685Y-116547228D01*
X116900000Y-110905228D02*
X116871428Y-110933800D01*
X116871428Y-110933800D02*
X116785714Y-110962371D01*
X116785714Y-110962371D02*
X116728571Y-110962371D01*
X116728571Y-110962371D02*
X116642857Y-110933800D01*
X116642857Y-110933800D02*
X116585714Y-110876657D01*
X116585714Y-110876657D02*
X116557143Y-110819514D01*
X116557143Y-110819514D02*
X116528571Y-110705228D01*
X116528571Y-110705228D02*
X116528571Y-110619514D01*
X116528571Y-110619514D02*
X116557143Y-110505228D01*
X116557143Y-110505228D02*
X116585714Y-110448085D01*
X116585714Y-110448085D02*
X116642857Y-110390942D01*
X116642857Y-110390942D02*
X116728571Y-110362371D01*
X116728571Y-110362371D02*
X116785714Y-110362371D01*
X116785714Y-110362371D02*
X116871428Y-110390942D01*
X116871428Y-110390942D02*
X116900000Y-110419514D01*
X117414286Y-110362371D02*
X117300000Y-110362371D01*
X117300000Y-110362371D02*
X117242857Y-110390942D01*
X117242857Y-110390942D02*
X117214286Y-110419514D01*
X117214286Y-110419514D02*
X117157143Y-110505228D01*
X117157143Y-110505228D02*
X117128571Y-110619514D01*
X117128571Y-110619514D02*
X117128571Y-110848085D01*
X117128571Y-110848085D02*
X117157143Y-110905228D01*
X117157143Y-110905228D02*
X117185714Y-110933800D01*
X117185714Y-110933800D02*
X117242857Y-110962371D01*
X117242857Y-110962371D02*
X117357143Y-110962371D01*
X117357143Y-110962371D02*
X117414286Y-110933800D01*
X117414286Y-110933800D02*
X117442857Y-110905228D01*
X117442857Y-110905228D02*
X117471428Y-110848085D01*
X117471428Y-110848085D02*
X117471428Y-110705228D01*
X117471428Y-110705228D02*
X117442857Y-110648085D01*
X117442857Y-110648085D02*
X117414286Y-110619514D01*
X117414286Y-110619514D02*
X117357143Y-110590942D01*
X117357143Y-110590942D02*
X117242857Y-110590942D01*
X117242857Y-110590942D02*
X117185714Y-110619514D01*
X117185714Y-110619514D02*
X117157143Y-110648085D01*
X117157143Y-110648085D02*
X117128571Y-110705228D01*
X111304400Y-111575171D02*
X111104400Y-111289457D01*
X110961543Y-111575171D02*
X110961543Y-110975171D01*
X110961543Y-110975171D02*
X111190114Y-110975171D01*
X111190114Y-110975171D02*
X111247257Y-111003742D01*
X111247257Y-111003742D02*
X111275828Y-111032314D01*
X111275828Y-111032314D02*
X111304400Y-111089457D01*
X111304400Y-111089457D02*
X111304400Y-111175171D01*
X111304400Y-111175171D02*
X111275828Y-111232314D01*
X111275828Y-111232314D02*
X111247257Y-111260885D01*
X111247257Y-111260885D02*
X111190114Y-111289457D01*
X111190114Y-111289457D02*
X110961543Y-111289457D01*
X111532971Y-111032314D02*
X111561543Y-111003742D01*
X111561543Y-111003742D02*
X111618686Y-110975171D01*
X111618686Y-110975171D02*
X111761543Y-110975171D01*
X111761543Y-110975171D02*
X111818686Y-111003742D01*
X111818686Y-111003742D02*
X111847257Y-111032314D01*
X111847257Y-111032314D02*
X111875828Y-111089457D01*
X111875828Y-111089457D02*
X111875828Y-111146600D01*
X111875828Y-111146600D02*
X111847257Y-111232314D01*
X111847257Y-111232314D02*
X111504400Y-111575171D01*
X111504400Y-111575171D02*
X111875828Y-111575171D01*
X136532842Y-103325070D02*
X136504270Y-103353642D01*
X136504270Y-103353642D02*
X136418556Y-103382213D01*
X136418556Y-103382213D02*
X136361413Y-103382213D01*
X136361413Y-103382213D02*
X136275699Y-103353642D01*
X136275699Y-103353642D02*
X136218556Y-103296499D01*
X136218556Y-103296499D02*
X136189985Y-103239356D01*
X136189985Y-103239356D02*
X136161413Y-103125070D01*
X136161413Y-103125070D02*
X136161413Y-103039356D01*
X136161413Y-103039356D02*
X136189985Y-102925070D01*
X136189985Y-102925070D02*
X136218556Y-102867927D01*
X136218556Y-102867927D02*
X136275699Y-102810784D01*
X136275699Y-102810784D02*
X136361413Y-102782213D01*
X136361413Y-102782213D02*
X136418556Y-102782213D01*
X136418556Y-102782213D02*
X136504270Y-102810784D01*
X136504270Y-102810784D02*
X136532842Y-102839356D01*
X137075699Y-102782213D02*
X136789985Y-102782213D01*
X136789985Y-102782213D02*
X136761413Y-103067927D01*
X136761413Y-103067927D02*
X136789985Y-103039356D01*
X136789985Y-103039356D02*
X136847128Y-103010784D01*
X136847128Y-103010784D02*
X136989985Y-103010784D01*
X136989985Y-103010784D02*
X137047128Y-103039356D01*
X137047128Y-103039356D02*
X137075699Y-103067927D01*
X137075699Y-103067927D02*
X137104270Y-103125070D01*
X137104270Y-103125070D02*
X137104270Y-103267927D01*
X137104270Y-103267927D02*
X137075699Y-103325070D01*
X137075699Y-103325070D02*
X137047128Y-103353642D01*
X137047128Y-103353642D02*
X136989985Y-103382213D01*
X136989985Y-103382213D02*
X136847128Y-103382213D01*
X136847128Y-103382213D02*
X136789985Y-103353642D01*
X136789985Y-103353642D02*
X136761413Y-103325070D01*
X162619375Y-97992542D02*
X162905090Y-97992542D01*
X162562232Y-98163971D02*
X162762232Y-97563971D01*
X162762232Y-97563971D02*
X162962232Y-98163971D01*
X163162233Y-98163971D02*
X163162233Y-97763971D01*
X163162233Y-97563971D02*
X163133661Y-97592542D01*
X163133661Y-97592542D02*
X163162233Y-97621114D01*
X163162233Y-97621114D02*
X163190804Y-97592542D01*
X163190804Y-97592542D02*
X163162233Y-97563971D01*
X163162233Y-97563971D02*
X163162233Y-97621114D01*
X163447947Y-97935400D02*
X163905090Y-97935400D01*
X164105089Y-97563971D02*
X164447947Y-97563971D01*
X164276518Y-98163971D02*
X164276518Y-97563971D01*
X164647947Y-98163971D02*
X164647947Y-97563971D01*
X164905090Y-98163971D02*
X164905090Y-97849685D01*
X164905090Y-97849685D02*
X164876518Y-97792542D01*
X164876518Y-97792542D02*
X164819375Y-97763971D01*
X164819375Y-97763971D02*
X164733661Y-97763971D01*
X164733661Y-97763971D02*
X164676518Y-97792542D01*
X164676518Y-97792542D02*
X164647947Y-97821114D01*
X165190804Y-98163971D02*
X165190804Y-97763971D01*
X165190804Y-97563971D02*
X165162232Y-97592542D01*
X165162232Y-97592542D02*
X165190804Y-97621114D01*
X165190804Y-97621114D02*
X165219375Y-97592542D01*
X165219375Y-97592542D02*
X165190804Y-97563971D01*
X165190804Y-97563971D02*
X165190804Y-97621114D01*
X165476518Y-97763971D02*
X165476518Y-98163971D01*
X165476518Y-97821114D02*
X165505089Y-97792542D01*
X165505089Y-97792542D02*
X165562232Y-97763971D01*
X165562232Y-97763971D02*
X165647946Y-97763971D01*
X165647946Y-97763971D02*
X165705089Y-97792542D01*
X165705089Y-97792542D02*
X165733661Y-97849685D01*
X165733661Y-97849685D02*
X165733661Y-98163971D01*
X166019375Y-98163971D02*
X166019375Y-97563971D01*
X166076518Y-97935400D02*
X166247946Y-98163971D01*
X166247946Y-97763971D02*
X166019375Y-97992542D01*
X166733660Y-98135400D02*
X166676517Y-98163971D01*
X166676517Y-98163971D02*
X166562232Y-98163971D01*
X166562232Y-98163971D02*
X166505089Y-98135400D01*
X166505089Y-98135400D02*
X166476517Y-98078257D01*
X166476517Y-98078257D02*
X166476517Y-97849685D01*
X166476517Y-97849685D02*
X166505089Y-97792542D01*
X166505089Y-97792542D02*
X166562232Y-97763971D01*
X166562232Y-97763971D02*
X166676517Y-97763971D01*
X166676517Y-97763971D02*
X166733660Y-97792542D01*
X166733660Y-97792542D02*
X166762232Y-97849685D01*
X166762232Y-97849685D02*
X166762232Y-97906828D01*
X166762232Y-97906828D02*
X166476517Y-97963971D01*
X167019375Y-98163971D02*
X167019375Y-97763971D01*
X167019375Y-97878257D02*
X167047946Y-97821114D01*
X167047946Y-97821114D02*
X167076518Y-97792542D01*
X167076518Y-97792542D02*
X167133660Y-97763971D01*
X167133660Y-97763971D02*
X167190803Y-97763971D01*
X168190804Y-98163971D02*
X167990804Y-97878257D01*
X167847947Y-98163971D02*
X167847947Y-97563971D01*
X167847947Y-97563971D02*
X168076518Y-97563971D01*
X168076518Y-97563971D02*
X168133661Y-97592542D01*
X168133661Y-97592542D02*
X168162232Y-97621114D01*
X168162232Y-97621114D02*
X168190804Y-97678257D01*
X168190804Y-97678257D02*
X168190804Y-97763971D01*
X168190804Y-97763971D02*
X168162232Y-97821114D01*
X168162232Y-97821114D02*
X168133661Y-97849685D01*
X168133661Y-97849685D02*
X168076518Y-97878257D01*
X168076518Y-97878257D02*
X167847947Y-97878257D01*
X168705090Y-98163971D02*
X168705090Y-97849685D01*
X168705090Y-97849685D02*
X168676518Y-97792542D01*
X168676518Y-97792542D02*
X168619375Y-97763971D01*
X168619375Y-97763971D02*
X168505090Y-97763971D01*
X168505090Y-97763971D02*
X168447947Y-97792542D01*
X168705090Y-98135400D02*
X168647947Y-98163971D01*
X168647947Y-98163971D02*
X168505090Y-98163971D01*
X168505090Y-98163971D02*
X168447947Y-98135400D01*
X168447947Y-98135400D02*
X168419375Y-98078257D01*
X168419375Y-98078257D02*
X168419375Y-98021114D01*
X168419375Y-98021114D02*
X168447947Y-97963971D01*
X168447947Y-97963971D02*
X168505090Y-97935400D01*
X168505090Y-97935400D02*
X168647947Y-97935400D01*
X168647947Y-97935400D02*
X168705090Y-97906828D01*
X168990804Y-97935400D02*
X169447947Y-97935400D01*
X169847946Y-97563971D02*
X169905089Y-97563971D01*
X169905089Y-97563971D02*
X169962232Y-97592542D01*
X169962232Y-97592542D02*
X169990804Y-97621114D01*
X169990804Y-97621114D02*
X170019375Y-97678257D01*
X170019375Y-97678257D02*
X170047946Y-97792542D01*
X170047946Y-97792542D02*
X170047946Y-97935400D01*
X170047946Y-97935400D02*
X170019375Y-98049685D01*
X170019375Y-98049685D02*
X169990804Y-98106828D01*
X169990804Y-98106828D02*
X169962232Y-98135400D01*
X169962232Y-98135400D02*
X169905089Y-98163971D01*
X169905089Y-98163971D02*
X169847946Y-98163971D01*
X169847946Y-98163971D02*
X169790804Y-98135400D01*
X169790804Y-98135400D02*
X169762232Y-98106828D01*
X169762232Y-98106828D02*
X169733661Y-98049685D01*
X169733661Y-98049685D02*
X169705089Y-97935400D01*
X169705089Y-97935400D02*
X169705089Y-97792542D01*
X169705089Y-97792542D02*
X169733661Y-97678257D01*
X169733661Y-97678257D02*
X169762232Y-97621114D01*
X169762232Y-97621114D02*
X169790804Y-97592542D01*
X169790804Y-97592542D02*
X169847946Y-97563971D01*
X170619375Y-98163971D02*
X170276518Y-98163971D01*
X170447947Y-98163971D02*
X170447947Y-97563971D01*
X170447947Y-97563971D02*
X170390804Y-97649685D01*
X170390804Y-97649685D02*
X170333661Y-97706828D01*
X170333661Y-97706828D02*
X170276518Y-97735400D01*
X170847947Y-98135400D02*
X170933662Y-98163971D01*
X170933662Y-98163971D02*
X171076519Y-98163971D01*
X171076519Y-98163971D02*
X171133662Y-98135400D01*
X171133662Y-98135400D02*
X171162233Y-98106828D01*
X171162233Y-98106828D02*
X171190804Y-98049685D01*
X171190804Y-98049685D02*
X171190804Y-97992542D01*
X171190804Y-97992542D02*
X171162233Y-97935400D01*
X171162233Y-97935400D02*
X171133662Y-97906828D01*
X171133662Y-97906828D02*
X171076519Y-97878257D01*
X171076519Y-97878257D02*
X170962233Y-97849685D01*
X170962233Y-97849685D02*
X170905090Y-97821114D01*
X170905090Y-97821114D02*
X170876519Y-97792542D01*
X170876519Y-97792542D02*
X170847947Y-97735400D01*
X170847947Y-97735400D02*
X170847947Y-97678257D01*
X170847947Y-97678257D02*
X170876519Y-97621114D01*
X170876519Y-97621114D02*
X170905090Y-97592542D01*
X170905090Y-97592542D02*
X170962233Y-97563971D01*
X170962233Y-97563971D02*
X171105090Y-97563971D01*
X171105090Y-97563971D02*
X171190804Y-97592542D01*
X171447948Y-98163971D02*
X171447948Y-97563971D01*
X171447948Y-97849685D02*
X171790805Y-97849685D01*
X171790805Y-98163971D02*
X171790805Y-97563971D01*
X128424000Y-101770771D02*
X128224000Y-101485057D01*
X128081143Y-101770771D02*
X128081143Y-101170771D01*
X128081143Y-101170771D02*
X128309714Y-101170771D01*
X128309714Y-101170771D02*
X128366857Y-101199342D01*
X128366857Y-101199342D02*
X128395428Y-101227914D01*
X128395428Y-101227914D02*
X128424000Y-101285057D01*
X128424000Y-101285057D02*
X128424000Y-101370771D01*
X128424000Y-101370771D02*
X128395428Y-101427914D01*
X128395428Y-101427914D02*
X128366857Y-101456485D01*
X128366857Y-101456485D02*
X128309714Y-101485057D01*
X128309714Y-101485057D02*
X128081143Y-101485057D01*
X128624000Y-101170771D02*
X128995428Y-101170771D01*
X128995428Y-101170771D02*
X128795428Y-101399342D01*
X128795428Y-101399342D02*
X128881143Y-101399342D01*
X128881143Y-101399342D02*
X128938286Y-101427914D01*
X128938286Y-101427914D02*
X128966857Y-101456485D01*
X128966857Y-101456485D02*
X128995428Y-101513628D01*
X128995428Y-101513628D02*
X128995428Y-101656485D01*
X128995428Y-101656485D02*
X128966857Y-101713628D01*
X128966857Y-101713628D02*
X128938286Y-101742200D01*
X128938286Y-101742200D02*
X128881143Y-101770771D01*
X128881143Y-101770771D02*
X128709714Y-101770771D01*
X128709714Y-101770771D02*
X128652571Y-101742200D01*
X128652571Y-101742200D02*
X128624000Y-101713628D01*
X174804400Y-93433228D02*
X174775828Y-93461800D01*
X174775828Y-93461800D02*
X174690114Y-93490371D01*
X174690114Y-93490371D02*
X174632971Y-93490371D01*
X174632971Y-93490371D02*
X174547257Y-93461800D01*
X174547257Y-93461800D02*
X174490114Y-93404657D01*
X174490114Y-93404657D02*
X174461543Y-93347514D01*
X174461543Y-93347514D02*
X174432971Y-93233228D01*
X174432971Y-93233228D02*
X174432971Y-93147514D01*
X174432971Y-93147514D02*
X174461543Y-93033228D01*
X174461543Y-93033228D02*
X174490114Y-92976085D01*
X174490114Y-92976085D02*
X174547257Y-92918942D01*
X174547257Y-92918942D02*
X174632971Y-92890371D01*
X174632971Y-92890371D02*
X174690114Y-92890371D01*
X174690114Y-92890371D02*
X174775828Y-92918942D01*
X174775828Y-92918942D02*
X174804400Y-92947514D01*
X175147257Y-93147514D02*
X175090114Y-93118942D01*
X175090114Y-93118942D02*
X175061543Y-93090371D01*
X175061543Y-93090371D02*
X175032971Y-93033228D01*
X175032971Y-93033228D02*
X175032971Y-93004657D01*
X175032971Y-93004657D02*
X175061543Y-92947514D01*
X175061543Y-92947514D02*
X175090114Y-92918942D01*
X175090114Y-92918942D02*
X175147257Y-92890371D01*
X175147257Y-92890371D02*
X175261543Y-92890371D01*
X175261543Y-92890371D02*
X175318686Y-92918942D01*
X175318686Y-92918942D02*
X175347257Y-92947514D01*
X175347257Y-92947514D02*
X175375828Y-93004657D01*
X175375828Y-93004657D02*
X175375828Y-93033228D01*
X175375828Y-93033228D02*
X175347257Y-93090371D01*
X175347257Y-93090371D02*
X175318686Y-93118942D01*
X175318686Y-93118942D02*
X175261543Y-93147514D01*
X175261543Y-93147514D02*
X175147257Y-93147514D01*
X175147257Y-93147514D02*
X175090114Y-93176085D01*
X175090114Y-93176085D02*
X175061543Y-93204657D01*
X175061543Y-93204657D02*
X175032971Y-93261800D01*
X175032971Y-93261800D02*
X175032971Y-93376085D01*
X175032971Y-93376085D02*
X175061543Y-93433228D01*
X175061543Y-93433228D02*
X175090114Y-93461800D01*
X175090114Y-93461800D02*
X175147257Y-93490371D01*
X175147257Y-93490371D02*
X175261543Y-93490371D01*
X175261543Y-93490371D02*
X175318686Y-93461800D01*
X175318686Y-93461800D02*
X175347257Y-93433228D01*
X175347257Y-93433228D02*
X175375828Y-93376085D01*
X175375828Y-93376085D02*
X175375828Y-93261800D01*
X175375828Y-93261800D02*
X175347257Y-93204657D01*
X175347257Y-93204657D02*
X175318686Y-93176085D01*
X175318686Y-93176085D02*
X175261543Y-93147514D01*
X179786976Y-109806729D02*
X179758404Y-109835301D01*
X179758404Y-109835301D02*
X179672690Y-109863872D01*
X179672690Y-109863872D02*
X179615547Y-109863872D01*
X179615547Y-109863872D02*
X179529833Y-109835301D01*
X179529833Y-109835301D02*
X179472690Y-109778158D01*
X179472690Y-109778158D02*
X179444119Y-109721015D01*
X179444119Y-109721015D02*
X179415547Y-109606729D01*
X179415547Y-109606729D02*
X179415547Y-109521015D01*
X179415547Y-109521015D02*
X179444119Y-109406729D01*
X179444119Y-109406729D02*
X179472690Y-109349586D01*
X179472690Y-109349586D02*
X179529833Y-109292443D01*
X179529833Y-109292443D02*
X179615547Y-109263872D01*
X179615547Y-109263872D02*
X179672690Y-109263872D01*
X179672690Y-109263872D02*
X179758404Y-109292443D01*
X179758404Y-109292443D02*
X179786976Y-109321015D01*
X180015547Y-109321015D02*
X180044119Y-109292443D01*
X180044119Y-109292443D02*
X180101262Y-109263872D01*
X180101262Y-109263872D02*
X180244119Y-109263872D01*
X180244119Y-109263872D02*
X180301262Y-109292443D01*
X180301262Y-109292443D02*
X180329833Y-109321015D01*
X180329833Y-109321015D02*
X180358404Y-109378158D01*
X180358404Y-109378158D02*
X180358404Y-109435301D01*
X180358404Y-109435301D02*
X180329833Y-109521015D01*
X180329833Y-109521015D02*
X179986976Y-109863872D01*
X179986976Y-109863872D02*
X180358404Y-109863872D01*
D12*
%TO.C,G\u002A\u002A\u002A*%
G36*
X182316557Y-121766713D02*
G01*
X182310723Y-121772547D01*
X182304889Y-121766713D01*
X182310723Y-121760880D01*
X182316557Y-121766713D01*
G37*
G36*
X182312667Y-117366147D02*
G01*
X182314064Y-117379993D01*
X182312667Y-117381703D01*
X182305731Y-117380102D01*
X182304889Y-117373925D01*
X182309158Y-117364322D01*
X182312667Y-117366147D01*
G37*
G36*
X182312667Y-117424484D02*
G01*
X182314064Y-117438331D01*
X182312667Y-117440041D01*
X182305731Y-117438439D01*
X182304889Y-117432262D01*
X182309158Y-117422659D01*
X182312667Y-117424484D01*
G37*
G36*
X181640369Y-120780186D02*
G01*
X181686204Y-120808117D01*
X181719607Y-120849914D01*
X181741083Y-120903756D01*
X181741291Y-120954532D01*
X181727298Y-120994900D01*
X181693763Y-121040250D01*
X181647171Y-121070167D01*
X181593348Y-121082924D01*
X181538123Y-121076793D01*
X181503320Y-121061306D01*
X181460110Y-121022721D01*
X181436123Y-120973702D01*
X181432283Y-120918290D01*
X181449510Y-120860529D01*
X181455077Y-120849914D01*
X181491781Y-120805265D01*
X181538201Y-120778760D01*
X181589382Y-120770401D01*
X181640369Y-120780186D01*
G37*
G36*
X183841305Y-116757598D02*
G01*
X183874922Y-116763103D01*
X183889326Y-116769552D01*
X183895202Y-116785015D01*
X183899416Y-116818896D01*
X183902064Y-116872650D01*
X183903243Y-116947731D01*
X183903327Y-116979566D01*
X183903327Y-117175579D01*
X183931248Y-117175579D01*
X183955599Y-117182463D01*
X183966250Y-117194034D01*
X183968790Y-117211899D01*
X183970926Y-117248361D01*
X183972479Y-117298683D01*
X183973269Y-117358128D01*
X183973332Y-117380713D01*
X183973332Y-117548937D01*
X183798320Y-117548937D01*
X183623309Y-117548937D01*
X183623309Y-117374769D01*
X183623309Y-117200602D01*
X183669979Y-117180011D01*
X183716648Y-117159421D01*
X183716648Y-116957486D01*
X183716648Y-116755551D01*
X183795987Y-116755551D01*
X183841305Y-116757598D01*
G37*
G36*
X184399686Y-116757467D02*
G01*
X184433633Y-116762381D01*
X184446805Y-116768000D01*
X184453167Y-116778042D01*
X184457759Y-116798043D01*
X184460820Y-116831065D01*
X184462592Y-116880172D01*
X184463314Y-116948425D01*
X184463364Y-116978661D01*
X184463364Y-117175579D01*
X184491284Y-117175579D01*
X184515636Y-117182463D01*
X184526287Y-117194034D01*
X184528826Y-117211899D01*
X184530962Y-117248361D01*
X184532515Y-117298683D01*
X184533306Y-117358128D01*
X184533369Y-117380713D01*
X184533369Y-117548937D01*
X184358357Y-117548937D01*
X184183346Y-117548937D01*
X184183346Y-117374769D01*
X184183346Y-117200602D01*
X184230015Y-117180011D01*
X184276685Y-117159421D01*
X184276685Y-116959325D01*
X184276685Y-116759229D01*
X184353465Y-116756743D01*
X184399686Y-116757467D01*
G37*
G36*
X183465491Y-119661276D02*
G01*
X183485299Y-119664257D01*
X183491402Y-119671754D01*
X183488613Y-119685835D01*
X183488249Y-119686994D01*
X183482288Y-119704957D01*
X183469880Y-119741680D01*
X183452151Y-119793854D01*
X183430229Y-119858165D01*
X183405239Y-119931304D01*
X183384030Y-119993264D01*
X183288101Y-120273282D01*
X183215046Y-120276794D01*
X183174803Y-120277801D01*
X183153605Y-120275364D01*
X183147308Y-120268669D01*
X183148362Y-120263704D01*
X183153807Y-120248327D01*
X183165640Y-120214165D01*
X183182724Y-120164522D01*
X183203923Y-120102704D01*
X183228101Y-120032013D01*
X183243808Y-119986008D01*
X183269665Y-119910399D01*
X183293650Y-119840608D01*
X183314531Y-119780194D01*
X183331073Y-119732720D01*
X183342044Y-119701745D01*
X183345336Y-119692827D01*
X183354116Y-119674870D01*
X183367000Y-119665260D01*
X183390581Y-119661413D01*
X183427164Y-119660742D01*
X183465491Y-119661276D01*
G37*
G36*
X183973332Y-121736404D02*
G01*
X183973332Y-121910274D01*
X183938330Y-121922475D01*
X183903327Y-121934677D01*
X183903327Y-122126455D01*
X183903237Y-122197345D01*
X183902632Y-122248552D01*
X183901016Y-122283728D01*
X183897888Y-122306524D01*
X183892751Y-122320592D01*
X183885106Y-122329584D01*
X183874569Y-122337076D01*
X183838863Y-122350888D01*
X183795771Y-122354912D01*
X183755992Y-122348944D01*
X183737066Y-122339677D01*
X183729134Y-122331122D01*
X183723536Y-122317005D01*
X183719880Y-122293632D01*
X183717775Y-122257308D01*
X183716831Y-122204337D01*
X183716648Y-122146769D01*
X183715921Y-122083283D01*
X183713920Y-122026913D01*
X183710912Y-121982334D01*
X183707166Y-121954217D01*
X183705227Y-121948019D01*
X183686430Y-121929067D01*
X183658558Y-121914391D01*
X183623309Y-121902103D01*
X183623309Y-121732318D01*
X183623309Y-121562533D01*
X183798320Y-121562533D01*
X183973332Y-121562533D01*
X183973332Y-121736404D01*
G37*
G36*
X185143913Y-118531604D02*
G01*
X185309102Y-118534835D01*
X185329687Y-118578588D01*
X185350273Y-118622340D01*
X185547998Y-118622340D01*
X185745724Y-118622340D01*
X185753400Y-118663254D01*
X185756479Y-118701631D01*
X185754561Y-118745948D01*
X185753214Y-118756594D01*
X185745352Y-118809019D01*
X185547470Y-118809019D01*
X185349589Y-118809019D01*
X185335397Y-118841105D01*
X185323590Y-118864373D01*
X185309460Y-118880793D01*
X185288996Y-118891561D01*
X185258188Y-118897875D01*
X185213023Y-118900930D01*
X185149492Y-118901924D01*
X185131325Y-118901988D01*
X185068795Y-118902002D01*
X185025865Y-118901278D01*
X184998798Y-118899196D01*
X184983860Y-118895137D01*
X184977315Y-118888482D01*
X184975427Y-118878610D01*
X184975275Y-118876107D01*
X184972855Y-118821519D01*
X184971138Y-118760789D01*
X184970165Y-118699424D01*
X184969978Y-118642931D01*
X184970619Y-118596814D01*
X184972130Y-118566581D01*
X184972872Y-118560772D01*
X184978723Y-118528372D01*
X185143913Y-118531604D01*
G37*
G36*
X183200186Y-121556622D02*
G01*
X183276071Y-121558126D01*
X183334540Y-121559884D01*
X183413295Y-121562533D01*
X183413295Y-121736404D01*
X183413295Y-121910274D01*
X183378293Y-121922475D01*
X183343291Y-121934677D01*
X183343291Y-122126455D01*
X183343200Y-122197345D01*
X183342596Y-122248552D01*
X183340979Y-122283728D01*
X183337851Y-122306524D01*
X183332714Y-122320592D01*
X183325069Y-122329584D01*
X183314532Y-122337076D01*
X183279022Y-122350830D01*
X183236101Y-122354933D01*
X183196451Y-122349165D01*
X183177328Y-122339895D01*
X183169688Y-122331347D01*
X183164069Y-122316712D01*
X183160075Y-122292490D01*
X183157311Y-122255184D01*
X183155383Y-122201296D01*
X183153993Y-122133178D01*
X183150778Y-121941742D01*
X183107057Y-121918399D01*
X183063335Y-121895055D01*
X183063304Y-121730043D01*
X183063905Y-121659325D01*
X183065880Y-121609469D01*
X183069438Y-121578030D01*
X183074788Y-121562562D01*
X183077856Y-121560155D01*
X183098618Y-121557639D01*
X183140215Y-121556460D01*
X183200186Y-121556622D01*
G37*
G36*
X185143919Y-120209143D02*
G01*
X185309253Y-120209174D01*
X185332596Y-120252896D01*
X185355940Y-120296617D01*
X185547941Y-120299834D01*
X185628177Y-120301828D01*
X185686748Y-120304835D01*
X185725307Y-120308998D01*
X185745506Y-120314461D01*
X185749017Y-120317336D01*
X185755538Y-120340769D01*
X185757979Y-120377526D01*
X185756511Y-120417984D01*
X185751303Y-120452523D01*
X185746371Y-120466562D01*
X185740398Y-120474856D01*
X185730414Y-120480833D01*
X185712943Y-120484868D01*
X185684509Y-120487337D01*
X185641634Y-120488617D01*
X185580844Y-120489083D01*
X185537816Y-120489130D01*
X185341338Y-120489130D01*
X185334338Y-120524132D01*
X185327337Y-120559134D01*
X185152034Y-120559134D01*
X184976731Y-120559134D01*
X184975646Y-120527049D01*
X184974739Y-120501314D01*
X184973224Y-120459474D01*
X184971364Y-120408740D01*
X184970454Y-120384123D01*
X184969272Y-120331728D01*
X184969569Y-120284863D01*
X184971243Y-120250735D01*
X184972466Y-120241197D01*
X184978585Y-120209111D01*
X185143919Y-120209143D01*
G37*
G36*
X180963134Y-118715680D02*
G01*
X180963134Y-118902359D01*
X180808541Y-118901892D01*
X180736164Y-118900814D01*
X180683573Y-118897864D01*
X180647270Y-118892704D01*
X180623756Y-118885001D01*
X180621862Y-118884018D01*
X180595430Y-118860168D01*
X180589777Y-118837815D01*
X180589777Y-118809019D01*
X180386845Y-118809019D01*
X180310682Y-118809083D01*
X180254740Y-118808277D01*
X180215911Y-118805101D01*
X180191089Y-118798058D01*
X180177168Y-118785649D01*
X180171041Y-118766377D01*
X180169602Y-118738741D01*
X180169749Y-118704307D01*
X180171560Y-118662397D01*
X180177770Y-118638860D01*
X180188204Y-118629422D01*
X180205682Y-118627036D01*
X180242128Y-118624993D01*
X180293177Y-118623439D01*
X180354463Y-118622524D01*
X180398218Y-118622340D01*
X180589777Y-118622340D01*
X180589777Y-118592338D01*
X180591627Y-118569399D01*
X180599287Y-118552737D01*
X180615924Y-118541366D01*
X180644704Y-118534301D01*
X180688793Y-118530555D01*
X180751357Y-118529141D01*
X180793123Y-118529001D01*
X180963134Y-118529001D01*
X180963134Y-118715680D01*
G37*
G36*
X180963134Y-120384123D02*
G01*
X180963134Y-120559134D01*
X180791040Y-120558213D01*
X180729190Y-120557504D01*
X180675148Y-120556176D01*
X180633456Y-120554394D01*
X180608651Y-120552323D01*
X180604361Y-120551407D01*
X180593083Y-120536489D01*
X180589777Y-120517326D01*
X180589777Y-120489130D01*
X180386845Y-120489130D01*
X180310682Y-120489194D01*
X180254740Y-120488387D01*
X180215911Y-120485211D01*
X180191089Y-120478168D01*
X180177168Y-120465760D01*
X180171041Y-120446487D01*
X180169602Y-120418852D01*
X180169749Y-120384417D01*
X180171560Y-120342507D01*
X180177770Y-120318970D01*
X180188204Y-120309533D01*
X180205682Y-120307146D01*
X180242128Y-120305103D01*
X180293177Y-120303550D01*
X180354463Y-120302634D01*
X180398218Y-120302451D01*
X180589777Y-120302451D01*
X180589777Y-120272449D01*
X180591627Y-120249509D01*
X180599287Y-120232847D01*
X180615924Y-120221477D01*
X180644704Y-120214411D01*
X180688793Y-120210665D01*
X180751357Y-120209252D01*
X180793123Y-120209111D01*
X180963134Y-120209111D01*
X180963134Y-120384123D01*
G37*
G36*
X181587397Y-121557600D02*
G01*
X181648307Y-121560426D01*
X181651513Y-121560668D01*
X181750686Y-121568367D01*
X181754255Y-121696709D01*
X181754552Y-121777580D01*
X181749913Y-121837913D01*
X181739718Y-121880099D01*
X181723343Y-121906532D01*
X181700167Y-121919607D01*
X181696080Y-121920561D01*
X181663180Y-121927141D01*
X181663180Y-122122687D01*
X181663094Y-122194365D01*
X181662514Y-122246318D01*
X181660955Y-122282155D01*
X181657933Y-122305486D01*
X181652965Y-122319919D01*
X181645565Y-122329065D01*
X181635250Y-122336533D01*
X181634422Y-122337076D01*
X181598912Y-122350830D01*
X181555991Y-122354933D01*
X181516341Y-122349165D01*
X181497217Y-122339895D01*
X181489578Y-122331347D01*
X181483959Y-122316712D01*
X181479965Y-122292490D01*
X181477201Y-122255184D01*
X181475273Y-122201296D01*
X181473882Y-122133178D01*
X181470668Y-121941742D01*
X181426946Y-121918399D01*
X181383225Y-121895055D01*
X181383193Y-121730404D01*
X181383162Y-121565752D01*
X181467751Y-121559361D01*
X181522719Y-121557213D01*
X181587397Y-121557600D01*
G37*
G36*
X182744858Y-121557458D02*
G01*
X182793356Y-121560110D01*
X182830251Y-121564118D01*
X182850319Y-121569272D01*
X182852061Y-121570670D01*
X182854361Y-121585154D01*
X182855840Y-121618473D01*
X182856405Y-121666142D01*
X182855967Y-121723671D01*
X182855588Y-121743959D01*
X182852084Y-121907884D01*
X182817669Y-121920874D01*
X182783254Y-121933864D01*
X182783254Y-122124797D01*
X182783060Y-122196130D01*
X182782206Y-122247820D01*
X182780280Y-122283561D01*
X182776872Y-122307043D01*
X182771572Y-122321958D01*
X182763969Y-122331998D01*
X182759786Y-122335825D01*
X182729463Y-122349821D01*
X182688200Y-122355257D01*
X182646887Y-122351823D01*
X182617291Y-122339895D01*
X182609652Y-122331347D01*
X182604032Y-122316712D01*
X182600038Y-122292490D01*
X182597275Y-122255184D01*
X182595346Y-122201296D01*
X182593956Y-122133178D01*
X182590741Y-121941742D01*
X182547020Y-121918399D01*
X182503298Y-121895055D01*
X182503267Y-121730470D01*
X182503235Y-121565884D01*
X182581991Y-121559754D01*
X182633951Y-121557069D01*
X182689982Y-121556375D01*
X182744858Y-121557458D01*
G37*
G36*
X183673150Y-119662258D02*
G01*
X183697898Y-119666191D01*
X183704981Y-119670514D01*
X183701428Y-119683372D01*
X183691662Y-119714313D01*
X183677021Y-119759341D01*
X183658842Y-119814459D01*
X183638463Y-119875670D01*
X183617224Y-119938979D01*
X183596461Y-120000389D01*
X183577513Y-120055903D01*
X183561717Y-120101526D01*
X183550412Y-120133261D01*
X183547116Y-120142024D01*
X183545539Y-120150470D01*
X183550941Y-120156211D01*
X183566838Y-120159760D01*
X183596745Y-120161636D01*
X183644176Y-120162353D01*
X183686232Y-120162442D01*
X183748980Y-120162546D01*
X183791624Y-120164022D01*
X183817393Y-120168617D01*
X183829514Y-120178076D01*
X183831215Y-120194146D01*
X183825724Y-120218573D01*
X183821042Y-120235363D01*
X183808891Y-120279116D01*
X183586398Y-120279116D01*
X183363905Y-120279116D01*
X183369793Y-120252864D01*
X183375069Y-120234938D01*
X183386832Y-120198230D01*
X183403994Y-120146031D01*
X183425467Y-120081631D01*
X183450161Y-120008319D01*
X183472114Y-119943677D01*
X183568546Y-119660742D01*
X183636764Y-119660742D01*
X183673150Y-119662258D01*
G37*
G36*
X185309253Y-120769211D02*
G01*
X185332597Y-120812932D01*
X185355941Y-120856654D01*
X185550073Y-120859847D01*
X185621465Y-120861133D01*
X185672947Y-120862608D01*
X185707941Y-120864768D01*
X185729869Y-120868110D01*
X185742153Y-120873131D01*
X185748216Y-120880326D01*
X185751167Y-120889015D01*
X185757940Y-120940289D01*
X185753537Y-120991792D01*
X185744909Y-121019449D01*
X185731369Y-121049166D01*
X185537453Y-121049166D01*
X185343537Y-121049166D01*
X185330325Y-121084169D01*
X185317114Y-121119171D01*
X185146922Y-121119171D01*
X185076350Y-121118642D01*
X185026553Y-121116912D01*
X184994991Y-121113763D01*
X184979124Y-121108979D01*
X184975999Y-121104587D01*
X184973725Y-121048954D01*
X184972089Y-120988333D01*
X184971133Y-120927971D01*
X184970899Y-120873118D01*
X184971429Y-120829019D01*
X184972765Y-120800924D01*
X184973522Y-120795400D01*
X184976626Y-120785064D01*
X184983122Y-120777875D01*
X184996719Y-120773262D01*
X185021124Y-120770655D01*
X185060048Y-120769486D01*
X185117199Y-120769185D01*
X185144257Y-120769180D01*
X185309253Y-120769211D01*
G37*
G36*
X182056021Y-121557834D02*
G01*
X182115164Y-121558751D01*
X182194342Y-121560323D01*
X182199882Y-121560440D01*
X182299055Y-121562537D01*
X182297906Y-121722962D01*
X182297452Y-121792615D01*
X182296777Y-121842501D01*
X182295170Y-121876183D01*
X182291924Y-121897224D01*
X182286330Y-121909187D01*
X182277678Y-121915634D01*
X182265261Y-121920128D01*
X182258219Y-121922475D01*
X182223217Y-121934677D01*
X182223126Y-122130714D01*
X182223035Y-122326750D01*
X182191631Y-122341334D01*
X182151208Y-122352777D01*
X182107086Y-122354506D01*
X182069463Y-122346631D01*
X182057254Y-122339895D01*
X182049615Y-122331347D01*
X182043996Y-122316712D01*
X182040002Y-122292490D01*
X182037238Y-122255184D01*
X182035310Y-122201296D01*
X182033919Y-122133178D01*
X182030704Y-121941742D01*
X181986983Y-121918399D01*
X181943262Y-121895055D01*
X181943230Y-121730043D01*
X181943821Y-121659551D01*
X181945765Y-121609901D01*
X181949276Y-121578626D01*
X181954564Y-121563259D01*
X181957783Y-121560813D01*
X181967795Y-121559062D01*
X181985438Y-121557984D01*
X182013813Y-121557577D01*
X182056021Y-121557834D01*
G37*
G36*
X180963134Y-119275717D02*
G01*
X180963134Y-119462396D01*
X180823814Y-119462396D01*
X180759927Y-119461354D01*
X180712394Y-119458377D01*
X180683851Y-119453688D01*
X180676791Y-119449933D01*
X180660900Y-119442433D01*
X180651922Y-119444057D01*
X180624133Y-119444028D01*
X180600632Y-119427298D01*
X180589839Y-119400131D01*
X180589777Y-119397814D01*
X180589777Y-119369056D01*
X180385819Y-119369056D01*
X180308933Y-119369117D01*
X180252375Y-119368205D01*
X180213148Y-119364675D01*
X180188254Y-119356884D01*
X180174696Y-119343187D01*
X180169476Y-119321939D01*
X180169598Y-119291498D01*
X180171977Y-119251758D01*
X180175583Y-119188211D01*
X180382680Y-119185025D01*
X180456687Y-119183806D01*
X180510565Y-119182470D01*
X180547516Y-119180566D01*
X180570742Y-119177644D01*
X180583446Y-119173254D01*
X180588832Y-119166945D01*
X180590101Y-119158267D01*
X180590148Y-119155856D01*
X180592195Y-119131570D01*
X180599680Y-119113971D01*
X180615816Y-119101995D01*
X180643816Y-119094582D01*
X180686893Y-119090669D01*
X180748260Y-119089194D01*
X180792326Y-119089038D01*
X180963134Y-119089038D01*
X180963134Y-119275717D01*
G37*
G36*
X185143848Y-119651677D02*
G01*
X185308972Y-119654908D01*
X185325498Y-119689911D01*
X185340645Y-119716732D01*
X185354431Y-119733223D01*
X185354807Y-119733485D01*
X185370319Y-119736398D01*
X185404917Y-119738910D01*
X185454355Y-119740834D01*
X185514386Y-119741988D01*
X185555938Y-119742235D01*
X185627544Y-119742593D01*
X185679140Y-119743719D01*
X185714046Y-119745930D01*
X185735583Y-119749543D01*
X185747071Y-119754875D01*
X185751367Y-119760869D01*
X185757395Y-119793696D01*
X185757654Y-119837188D01*
X185752511Y-119879497D01*
X185747070Y-119899165D01*
X185735692Y-119929093D01*
X185537984Y-119929093D01*
X185340276Y-119929093D01*
X185332717Y-119963505D01*
X185325159Y-119997916D01*
X185155640Y-120001424D01*
X185092033Y-120002008D01*
X185039216Y-120001066D01*
X185000993Y-119998757D01*
X184981167Y-119995240D01*
X184979392Y-119994004D01*
X184976052Y-119977551D01*
X184973163Y-119943366D01*
X184970854Y-119897050D01*
X184969252Y-119844203D01*
X184968487Y-119790427D01*
X184968686Y-119741323D01*
X184969980Y-119702490D01*
X184972206Y-119680846D01*
X184978723Y-119648446D01*
X185143848Y-119651677D01*
G37*
G36*
X181600236Y-116757480D02*
G01*
X181632854Y-116762587D01*
X181649179Y-116769552D01*
X181655055Y-116785015D01*
X181659269Y-116818896D01*
X181661917Y-116872650D01*
X181663096Y-116947731D01*
X181663180Y-116979566D01*
X181663180Y-117175579D01*
X181691384Y-117175579D01*
X181717075Y-117184920D01*
X181735914Y-117213515D01*
X181748132Y-117262221D01*
X181753959Y-117331896D01*
X181754041Y-117408928D01*
X181750686Y-117543103D01*
X181566924Y-117546316D01*
X181383162Y-117549529D01*
X181383162Y-117385889D01*
X181383477Y-117319824D01*
X181384747Y-117273003D01*
X181387461Y-117241342D01*
X181392105Y-117220753D01*
X181399168Y-117207152D01*
X181405345Y-117200066D01*
X181431853Y-117179842D01*
X181452015Y-117170111D01*
X181460981Y-117166257D01*
X181467441Y-117158994D01*
X181471805Y-117144906D01*
X181474484Y-117120578D01*
X181475886Y-117082596D01*
X181476422Y-117027546D01*
X181476501Y-116966027D01*
X181476772Y-116892781D01*
X181477780Y-116839610D01*
X181479821Y-116803260D01*
X181483190Y-116780475D01*
X181488183Y-116768000D01*
X181494957Y-116762633D01*
X181522722Y-116757119D01*
X181560670Y-116755529D01*
X181600236Y-116757480D01*
G37*
G36*
X183280346Y-116757480D02*
G01*
X183312965Y-116762587D01*
X183329290Y-116769552D01*
X183335166Y-116785015D01*
X183339379Y-116818896D01*
X183342027Y-116872650D01*
X183343207Y-116947731D01*
X183343291Y-116979566D01*
X183343291Y-117175579D01*
X183371318Y-117175579D01*
X183389796Y-117179689D01*
X183403090Y-117193815D01*
X183411748Y-117220655D01*
X183416315Y-117262903D01*
X183417340Y-117323257D01*
X183415717Y-117394343D01*
X183410536Y-117548937D01*
X183236904Y-117548937D01*
X183063272Y-117548937D01*
X183063272Y-117381567D01*
X183063731Y-117310480D01*
X183065891Y-117259017D01*
X183070930Y-117223477D01*
X183080023Y-117200154D01*
X183094346Y-117185347D01*
X183115076Y-117175350D01*
X183130360Y-117170339D01*
X183139962Y-117166689D01*
X183146880Y-117160217D01*
X183151556Y-117147504D01*
X183154427Y-117125129D01*
X183155934Y-117089672D01*
X183156515Y-117037713D01*
X183156612Y-116966027D01*
X183156882Y-116892781D01*
X183157890Y-116839610D01*
X183159931Y-116803260D01*
X183163300Y-116780475D01*
X183168294Y-116768000D01*
X183175067Y-116762633D01*
X183202832Y-116757119D01*
X183240780Y-116755529D01*
X183280346Y-116757480D01*
G37*
G36*
X185329879Y-119135707D02*
G01*
X185348212Y-119182377D01*
X185546968Y-119182377D01*
X185745724Y-119182377D01*
X185753554Y-119224115D01*
X185756155Y-119263778D01*
X185752449Y-119307518D01*
X185751125Y-119314537D01*
X185740865Y-119363222D01*
X185544355Y-119366426D01*
X185347845Y-119369631D01*
X185334742Y-119404346D01*
X185318660Y-119430280D01*
X185300861Y-119439061D01*
X185283337Y-119444479D01*
X185280084Y-119450728D01*
X185269326Y-119455913D01*
X185240588Y-119459623D01*
X185199180Y-119461889D01*
X185150409Y-119462737D01*
X185099582Y-119462198D01*
X185052008Y-119460299D01*
X185012994Y-119457069D01*
X184987848Y-119452536D01*
X184981573Y-119449123D01*
X184978094Y-119432493D01*
X184975004Y-119397966D01*
X184972441Y-119350976D01*
X184970542Y-119296958D01*
X184969445Y-119241347D01*
X184969290Y-119189580D01*
X184970212Y-119147092D01*
X184972352Y-119119317D01*
X184973097Y-119115289D01*
X184976365Y-119104983D01*
X184982978Y-119097803D01*
X184996639Y-119093184D01*
X185021053Y-119090562D01*
X185059925Y-119089372D01*
X185116959Y-119089050D01*
X185145404Y-119089038D01*
X185311547Y-119089038D01*
X185329879Y-119135707D01*
G37*
G36*
X180790094Y-120769148D02*
G01*
X180963134Y-120769148D01*
X180963134Y-120944159D01*
X180963134Y-121119171D01*
X180791040Y-121118250D01*
X180729190Y-121117541D01*
X180675148Y-121116213D01*
X180633456Y-121114431D01*
X180608651Y-121112360D01*
X180604361Y-121111444D01*
X180593083Y-121096525D01*
X180589777Y-121077363D01*
X180589777Y-121049166D01*
X180386845Y-121049166D01*
X180310682Y-121049230D01*
X180254740Y-121048424D01*
X180215911Y-121045248D01*
X180191089Y-121038205D01*
X180177168Y-121025796D01*
X180171041Y-121006524D01*
X180169602Y-120978888D01*
X180169749Y-120944454D01*
X180171967Y-120900624D01*
X180179090Y-120876615D01*
X180186475Y-120870233D01*
X180203385Y-120867923D01*
X180239270Y-120865696D01*
X180289768Y-120863736D01*
X180350520Y-120862226D01*
X180391618Y-120861595D01*
X180463061Y-120860473D01*
X180514483Y-120858811D01*
X180549198Y-120856250D01*
X180570518Y-120852431D01*
X180581758Y-120846994D01*
X180585964Y-120840513D01*
X180594609Y-120813579D01*
X180603421Y-120794442D01*
X180616204Y-120781771D01*
X180636764Y-120774237D01*
X180668906Y-120770508D01*
X180716435Y-120769255D01*
X180783156Y-120769147D01*
X180790094Y-120769148D01*
G37*
G36*
X182273005Y-118705527D02*
G01*
X182297780Y-118709456D01*
X182304889Y-118713785D01*
X182301336Y-118726643D01*
X182291570Y-118757584D01*
X182276929Y-118802612D01*
X182258750Y-118857729D01*
X182238372Y-118918941D01*
X182217132Y-118982250D01*
X182196369Y-119043659D01*
X182177421Y-119099174D01*
X182161625Y-119144797D01*
X182150320Y-119176532D01*
X182147024Y-119185294D01*
X182145447Y-119193741D01*
X182150849Y-119199481D01*
X182166746Y-119203031D01*
X182196653Y-119204906D01*
X182244084Y-119205623D01*
X182286140Y-119205712D01*
X182348888Y-119205816D01*
X182391532Y-119207293D01*
X182417301Y-119211888D01*
X182429422Y-119221347D01*
X182431123Y-119237417D01*
X182425633Y-119261844D01*
X182420950Y-119278634D01*
X182408799Y-119322386D01*
X182187666Y-119322386D01*
X182118715Y-119321948D01*
X182058526Y-119320729D01*
X182010690Y-119318870D01*
X181978798Y-119316513D01*
X181966441Y-119313801D01*
X181966399Y-119313636D01*
X181969943Y-119300685D01*
X181980008Y-119268580D01*
X181995630Y-119220271D01*
X182015849Y-119158705D01*
X182039701Y-119086833D01*
X182066224Y-119007602D01*
X182067284Y-119004449D01*
X182168303Y-118704012D01*
X182236596Y-118704012D01*
X182273005Y-118705527D01*
G37*
G36*
X180963134Y-118155643D02*
G01*
X180963134Y-118342322D01*
X180808541Y-118341855D01*
X180736164Y-118340778D01*
X180683573Y-118337827D01*
X180647270Y-118332667D01*
X180623756Y-118324964D01*
X180621862Y-118323981D01*
X180595430Y-118300131D01*
X180589777Y-118277779D01*
X180589777Y-118248983D01*
X180393764Y-118248983D01*
X180310814Y-118248298D01*
X180249706Y-118246179D01*
X180208984Y-118242528D01*
X180187192Y-118237250D01*
X180183750Y-118234982D01*
X180176134Y-118215912D01*
X180171329Y-118182198D01*
X180169720Y-118142406D01*
X180171690Y-118105101D01*
X180176831Y-118080759D01*
X180182257Y-118073984D01*
X180194687Y-118069064D01*
X180217322Y-118065717D01*
X180253365Y-118063663D01*
X180306019Y-118062620D01*
X180378484Y-118062306D01*
X180386845Y-118062304D01*
X180459997Y-118062231D01*
X180513050Y-118061735D01*
X180549241Y-118060398D01*
X180571807Y-118057802D01*
X180583982Y-118053528D01*
X180589005Y-118047160D01*
X180590110Y-118038278D01*
X180590148Y-118036052D01*
X180592181Y-118011671D01*
X180599630Y-117994002D01*
X180615708Y-117981979D01*
X180643628Y-117974536D01*
X180686606Y-117970606D01*
X180747853Y-117969123D01*
X180792326Y-117968964D01*
X180963134Y-117968964D01*
X180963134Y-118155643D01*
G37*
G36*
X182722782Y-116758069D02*
G01*
X182755798Y-116763014D01*
X182766771Y-116768064D01*
X182773112Y-116778164D01*
X182777688Y-116798369D01*
X182780738Y-116831725D01*
X182782499Y-116881272D01*
X182783209Y-116950055D01*
X182783254Y-116978661D01*
X182783254Y-117175579D01*
X182811636Y-117175579D01*
X182824785Y-117176291D01*
X182835163Y-117180044D01*
X182843053Y-117189264D01*
X182848739Y-117206379D01*
X182852503Y-117233815D01*
X182854628Y-117273998D01*
X182855397Y-117329355D01*
X182855092Y-117402312D01*
X182853998Y-117495295D01*
X182853461Y-117534352D01*
X182847351Y-117540310D01*
X182827522Y-117544535D01*
X182791443Y-117547237D01*
X182736582Y-117548627D01*
X182678247Y-117548937D01*
X182503235Y-117548937D01*
X182503235Y-117381567D01*
X182503696Y-117310472D01*
X182505859Y-117259004D01*
X182510896Y-117223462D01*
X182519977Y-117200143D01*
X182534275Y-117185347D01*
X182554961Y-117175371D01*
X182570051Y-117170425D01*
X182579482Y-117166731D01*
X182586370Y-117160012D01*
X182591188Y-117146890D01*
X182594407Y-117123984D01*
X182596501Y-117087916D01*
X182597943Y-117035307D01*
X182599206Y-116962778D01*
X182599219Y-116961948D01*
X182602409Y-116761385D01*
X182676349Y-116757885D01*
X182722782Y-116758069D01*
G37*
G36*
X184054989Y-118704039D02*
G01*
X184113595Y-118704765D01*
X184154121Y-118707160D01*
X184179195Y-118712192D01*
X184191443Y-118720832D01*
X184193491Y-118734048D01*
X184187967Y-118752809D01*
X184177498Y-118778086D01*
X184177355Y-118778426D01*
X184159698Y-118820687D01*
X184085579Y-118820687D01*
X184011461Y-118820687D01*
X183987475Y-118887775D01*
X183975373Y-118922286D01*
X183957788Y-118973292D01*
X183936651Y-119035160D01*
X183913887Y-119102258D01*
X183901617Y-119138624D01*
X183839744Y-119322386D01*
X183772363Y-119322386D01*
X183736231Y-119320702D01*
X183711775Y-119316339D01*
X183704981Y-119311658D01*
X183708542Y-119298475D01*
X183718329Y-119267240D01*
X183732996Y-119221970D01*
X183751196Y-119166686D01*
X183771584Y-119105406D01*
X183792813Y-119042149D01*
X183813539Y-118980936D01*
X183832415Y-118925784D01*
X183848095Y-118880714D01*
X183859233Y-118849744D01*
X183862555Y-118841105D01*
X183864590Y-118829843D01*
X183856075Y-118823673D01*
X183832452Y-118821120D01*
X183799569Y-118820687D01*
X183756667Y-118819082D01*
X183733880Y-118811407D01*
X183728057Y-118793372D01*
X183736046Y-118760686D01*
X183742327Y-118742760D01*
X183756338Y-118704012D01*
X183975676Y-118704012D01*
X184054989Y-118704039D01*
G37*
G36*
X180960521Y-119826856D02*
G01*
X180958929Y-119896238D01*
X180956821Y-119945481D01*
X180953828Y-119977781D01*
X180949578Y-119996333D01*
X180943700Y-120004334D01*
X180939800Y-120005388D01*
X180922220Y-120005219D01*
X180886111Y-120004234D01*
X180836260Y-120002585D01*
X180777451Y-120000421D01*
X180758954Y-119999701D01*
X180595610Y-119993264D01*
X180591918Y-119961178D01*
X180588227Y-119929093D01*
X180386070Y-119929093D01*
X180310063Y-119929156D01*
X180254271Y-119928340D01*
X180215581Y-119925139D01*
X180190881Y-119918047D01*
X180177060Y-119905556D01*
X180171005Y-119886162D01*
X180169603Y-119858356D01*
X180169749Y-119824380D01*
X180171560Y-119782471D01*
X180177770Y-119758933D01*
X180188204Y-119749496D01*
X180205682Y-119747109D01*
X180242128Y-119745066D01*
X180293177Y-119743513D01*
X180354463Y-119742597D01*
X180398218Y-119742414D01*
X180468991Y-119742331D01*
X180519760Y-119741780D01*
X180553857Y-119740303D01*
X180574613Y-119737447D01*
X180585360Y-119732754D01*
X180589428Y-119725770D01*
X180590148Y-119716162D01*
X180592176Y-119691797D01*
X180599609Y-119674136D01*
X180615658Y-119662113D01*
X180643536Y-119654665D01*
X180686453Y-119650728D01*
X180747621Y-119649237D01*
X180792630Y-119649074D01*
X180963742Y-119649074D01*
X180960521Y-119826856D01*
G37*
G36*
X182025092Y-119709817D02*
G01*
X182024520Y-119736168D01*
X182022794Y-119781606D01*
X182020106Y-119841923D01*
X182016647Y-119912910D01*
X182012608Y-119990359D01*
X182011022Y-120019515D01*
X181996729Y-120279116D01*
X181922455Y-120279116D01*
X181848180Y-120279116D01*
X181856198Y-120214945D01*
X181864215Y-120150774D01*
X181777830Y-120150774D01*
X181691446Y-120150774D01*
X181652554Y-120214945D01*
X181613662Y-120279116D01*
X181538838Y-120279116D01*
X181498834Y-120278548D01*
X181477904Y-120275916D01*
X181471796Y-120269832D01*
X181476260Y-120258904D01*
X181476384Y-120258698D01*
X181485689Y-120243912D01*
X181505899Y-120212167D01*
X181535305Y-120166135D01*
X181572198Y-120108491D01*
X181614869Y-120041904D01*
X181619876Y-120034100D01*
X181766836Y-120034100D01*
X181813342Y-120034100D01*
X181859848Y-120034100D01*
X181867134Y-119967012D01*
X181872104Y-119924386D01*
X181877027Y-119887100D01*
X181879556Y-119870756D01*
X181884692Y-119841587D01*
X181864359Y-119869767D01*
X181847870Y-119894811D01*
X181825418Y-119931630D01*
X181805431Y-119966023D01*
X181766836Y-120034100D01*
X181619876Y-120034100D01*
X181661608Y-119969049D01*
X181672278Y-119952428D01*
X181855801Y-119666576D01*
X181940336Y-119663148D01*
X182024871Y-119659720D01*
X182025092Y-119709817D01*
G37*
G36*
X185329879Y-118015634D02*
G01*
X185348212Y-118062304D01*
X185546570Y-118062304D01*
X185744928Y-118062304D01*
X185750959Y-118094389D01*
X185754392Y-118131208D01*
X185753712Y-118161477D01*
X185750624Y-118196759D01*
X185748608Y-118222731D01*
X185747371Y-118232169D01*
X185743006Y-118239021D01*
X185732264Y-118243701D01*
X185711895Y-118246623D01*
X185678650Y-118248201D01*
X185629280Y-118248849D01*
X185560534Y-118248982D01*
X185542602Y-118248983D01*
X185469129Y-118249099D01*
X185415779Y-118249692D01*
X185379338Y-118251130D01*
X185356594Y-118253779D01*
X185344335Y-118258006D01*
X185339349Y-118264179D01*
X185338421Y-118272317D01*
X185330503Y-118297717D01*
X185315087Y-118318987D01*
X185303510Y-118328486D01*
X185288295Y-118335011D01*
X185265204Y-118339108D01*
X185230002Y-118341324D01*
X185178455Y-118342206D01*
X185134241Y-118342322D01*
X185071027Y-118342190D01*
X185027448Y-118341387D01*
X184999805Y-118339301D01*
X184984398Y-118335322D01*
X184977527Y-118328838D01*
X184975493Y-118319239D01*
X184975295Y-118316070D01*
X184972668Y-118257253D01*
X184970814Y-118194047D01*
X184969781Y-118131783D01*
X184969617Y-118075795D01*
X184970367Y-118031415D01*
X184972079Y-118003974D01*
X184972529Y-118001050D01*
X184978585Y-117968964D01*
X185145066Y-117968964D01*
X185311547Y-117968964D01*
X185329879Y-118015634D01*
G37*
G36*
X182162746Y-116758069D02*
G01*
X182195761Y-116763014D01*
X182206735Y-116768064D01*
X182213075Y-116778164D01*
X182217651Y-116798369D01*
X182220701Y-116831725D01*
X182222462Y-116881272D01*
X182223172Y-116950055D01*
X182223217Y-116978661D01*
X182223217Y-117175579D01*
X182251289Y-117175579D01*
X182270110Y-117179724D01*
X182284008Y-117195783D01*
X182297627Y-117229190D01*
X182297959Y-117230161D01*
X182310707Y-117274516D01*
X182316112Y-117308979D01*
X182313979Y-117329633D01*
X182304113Y-117332560D01*
X182303038Y-117331945D01*
X182296925Y-117334096D01*
X182294154Y-117351959D01*
X182294585Y-117388127D01*
X182297440Y-117436264D01*
X182305360Y-117548937D01*
X182124279Y-117548937D01*
X181943199Y-117548937D01*
X181943199Y-117381567D01*
X181943659Y-117310472D01*
X181943689Y-117309754D01*
X182293222Y-117309754D01*
X182299055Y-117315588D01*
X182304889Y-117309754D01*
X182299055Y-117303921D01*
X182293222Y-117309754D01*
X181943689Y-117309754D01*
X181945822Y-117259004D01*
X181950859Y-117223462D01*
X181959940Y-117200143D01*
X181974238Y-117185347D01*
X181994924Y-117175371D01*
X182010014Y-117170425D01*
X182019445Y-117166731D01*
X182026333Y-117160012D01*
X182031151Y-117146890D01*
X182034370Y-117123984D01*
X182036465Y-117087916D01*
X182037907Y-117035307D01*
X182039169Y-116962778D01*
X182039183Y-116961948D01*
X182042372Y-116761385D01*
X182116312Y-116757885D01*
X182162746Y-116758069D01*
G37*
G36*
X183675336Y-118730264D02*
G01*
X183665015Y-118763752D01*
X183654852Y-118787056D01*
X183640680Y-118802206D01*
X183618335Y-118811231D01*
X183583651Y-118816160D01*
X183532461Y-118819025D01*
X183489746Y-118820687D01*
X183338932Y-118826521D01*
X183318836Y-118884769D01*
X183308474Y-118919116D01*
X183303634Y-118944205D01*
X183304202Y-118951856D01*
X183317545Y-118955782D01*
X183348625Y-118958812D01*
X183391848Y-118960497D01*
X183413984Y-118960696D01*
X183463725Y-118961110D01*
X183494579Y-118962998D01*
X183510987Y-118967331D01*
X183517392Y-118975078D01*
X183518302Y-118983482D01*
X183513489Y-119011524D01*
X183504939Y-119035596D01*
X183497648Y-119048941D01*
X183487241Y-119057647D01*
X183468970Y-119062899D01*
X183438086Y-119065880D01*
X183389840Y-119067775D01*
X183374053Y-119068230D01*
X183256529Y-119071537D01*
X183214430Y-119194045D01*
X183172330Y-119316553D01*
X183098823Y-119320065D01*
X183058423Y-119321075D01*
X183037074Y-119318668D01*
X183030640Y-119312035D01*
X183031687Y-119306975D01*
X183037133Y-119291598D01*
X183048966Y-119257436D01*
X183066050Y-119207793D01*
X183087248Y-119145974D01*
X183111427Y-119075284D01*
X183127133Y-119029278D01*
X183152991Y-118953670D01*
X183176976Y-118883878D01*
X183197856Y-118823465D01*
X183214399Y-118775990D01*
X183225370Y-118745015D01*
X183228662Y-118736098D01*
X183241115Y-118704012D01*
X183462167Y-118704012D01*
X183683219Y-118704012D01*
X183675336Y-118730264D01*
G37*
G36*
X184329189Y-119663297D02*
G01*
X184410861Y-119666576D01*
X184408222Y-119742414D01*
X184407004Y-119778369D01*
X184405214Y-119832416D01*
X184403025Y-119899323D01*
X184400606Y-119973858D01*
X184398197Y-120048684D01*
X184390810Y-120279116D01*
X184316246Y-120279116D01*
X184241683Y-120279116D01*
X184241683Y-120214945D01*
X184241683Y-120150774D01*
X184161582Y-120150774D01*
X184081482Y-120150774D01*
X184041991Y-120212028D01*
X184002500Y-120273282D01*
X183929579Y-120276756D01*
X183891825Y-120277749D01*
X183865475Y-120276905D01*
X183856658Y-120274695D01*
X183862636Y-120263111D01*
X183878611Y-120236876D01*
X183901641Y-120200758D01*
X183912758Y-120183716D01*
X183936206Y-120147679D01*
X183969288Y-120096388D01*
X184009146Y-120034299D01*
X184012146Y-120029609D01*
X184160011Y-120029609D01*
X184170351Y-120032463D01*
X184196078Y-120034009D01*
X184205095Y-120034100D01*
X184232568Y-120032994D01*
X184246781Y-120025561D01*
X184253725Y-120005626D01*
X184257598Y-119979968D01*
X184262281Y-119936054D01*
X184264792Y-119893464D01*
X184264931Y-119883712D01*
X184264373Y-119864791D01*
X184261339Y-119857692D01*
X184253636Y-119864487D01*
X184239074Y-119887246D01*
X184215461Y-119928043D01*
X184212428Y-119933352D01*
X184189324Y-119974263D01*
X184171419Y-120006847D01*
X184161320Y-120026319D01*
X184160011Y-120029609D01*
X184012146Y-120029609D01*
X184052921Y-119965866D01*
X184097754Y-119895545D01*
X184108187Y-119879145D01*
X184247517Y-119660018D01*
X184329189Y-119663297D01*
G37*
G36*
X184308483Y-121559848D02*
G01*
X184361510Y-121561914D01*
X184414968Y-121564696D01*
X184463828Y-121567941D01*
X184503064Y-121571397D01*
X184527648Y-121574810D01*
X184533453Y-121577118D01*
X184533422Y-121591389D01*
X184533397Y-121624499D01*
X184533378Y-121671951D01*
X184533369Y-121729251D01*
X184533369Y-121748071D01*
X184533369Y-121910274D01*
X184498366Y-121922475D01*
X184463364Y-121934677D01*
X184463364Y-122126455D01*
X184463273Y-122197345D01*
X184462669Y-122248552D01*
X184461052Y-122283728D01*
X184457925Y-122306524D01*
X184452788Y-122320592D01*
X184445143Y-122329584D01*
X184434606Y-122337076D01*
X184398690Y-122351028D01*
X184355157Y-122355324D01*
X184314736Y-122349704D01*
X184294996Y-122340452D01*
X184286829Y-122332329D01*
X184281126Y-122319401D01*
X184277505Y-122297936D01*
X184275584Y-122264200D01*
X184274980Y-122214460D01*
X184275285Y-122148052D01*
X184275639Y-122079732D01*
X184275092Y-122030670D01*
X184273170Y-121996792D01*
X184269400Y-121974026D01*
X184263305Y-121958299D01*
X184254413Y-121945537D01*
X184251267Y-121941837D01*
X184227518Y-121921454D01*
X184205233Y-121912570D01*
X184204577Y-121912556D01*
X184196377Y-121910909D01*
X184190602Y-121903670D01*
X184186832Y-121887395D01*
X184184646Y-121858638D01*
X184183625Y-121813955D01*
X184183349Y-121749901D01*
X184183346Y-121738400D01*
X184183633Y-121670365D01*
X184184738Y-121622231D01*
X184187026Y-121590571D01*
X184190860Y-121571954D01*
X184196607Y-121562952D01*
X184202267Y-121560472D01*
X184223834Y-121558874D01*
X184260915Y-121558750D01*
X184308483Y-121559848D01*
G37*
G36*
X183139367Y-118704767D02*
G01*
X183159251Y-118708040D01*
X183165024Y-118715345D01*
X183162842Y-118724430D01*
X183156876Y-118741134D01*
X183144631Y-118776422D01*
X183127315Y-118826780D01*
X183106134Y-118888692D01*
X183082298Y-118958641D01*
X183072283Y-118988104D01*
X182989657Y-119231359D01*
X182932077Y-119276872D01*
X182874498Y-119322386D01*
X182724906Y-119322386D01*
X182575314Y-119322386D01*
X182545109Y-119286489D01*
X182525810Y-119260199D01*
X182515459Y-119239563D01*
X182514903Y-119236142D01*
X182518486Y-119221357D01*
X182528535Y-119187790D01*
X182543997Y-119138747D01*
X182563821Y-119077536D01*
X182586953Y-119007465D01*
X182600900Y-118965769D01*
X182686897Y-118709846D01*
X182758410Y-118706373D01*
X182795753Y-118705285D01*
X182821631Y-118705920D01*
X182829924Y-118707802D01*
X182826337Y-118719831D01*
X182816328Y-118750553D01*
X182801024Y-118796582D01*
X182781553Y-118854531D01*
X182759043Y-118921013D01*
X182754085Y-118935594D01*
X182730900Y-119004871D01*
X182710577Y-119067767D01*
X182694273Y-119120520D01*
X182683145Y-119159372D01*
X182678349Y-119180565D01*
X182678247Y-119182097D01*
X182680389Y-119194516D01*
X182690153Y-119201623D01*
X182712546Y-119204868D01*
X182752574Y-119205704D01*
X182759650Y-119205712D01*
X182803826Y-119204814D01*
X182830962Y-119201006D01*
X182847320Y-119192622D01*
X182858215Y-119179460D01*
X182867383Y-119160251D01*
X182882347Y-119122959D01*
X182901578Y-119071655D01*
X182923546Y-119010412D01*
X182944778Y-118949029D01*
X182967346Y-118882841D01*
X182987770Y-118823334D01*
X183004695Y-118774422D01*
X183016766Y-118740022D01*
X183022472Y-118724430D01*
X183032303Y-118712510D01*
X183053130Y-118706203D01*
X183090488Y-118704066D01*
X183100771Y-118704012D01*
X183139367Y-118704767D01*
G37*
G36*
X183256042Y-119661497D02*
G01*
X183275926Y-119664770D01*
X183281699Y-119672074D01*
X183279517Y-119681160D01*
X183273551Y-119697863D01*
X183261305Y-119733152D01*
X183243989Y-119783510D01*
X183222809Y-119845421D01*
X183198972Y-119915370D01*
X183188957Y-119944833D01*
X183106331Y-120188088D01*
X183048752Y-120233602D01*
X182991172Y-120279116D01*
X182841580Y-120279116D01*
X182691989Y-120279116D01*
X182661783Y-120243218D01*
X182642485Y-120216928D01*
X182632134Y-120196292D01*
X182631577Y-120192871D01*
X182635161Y-120178087D01*
X182645209Y-120144519D01*
X182660672Y-120095477D01*
X182680495Y-120034266D01*
X182703628Y-119964195D01*
X182717574Y-119922498D01*
X182803572Y-119666576D01*
X182875085Y-119663102D01*
X182912427Y-119662015D01*
X182938305Y-119662650D01*
X182946598Y-119664532D01*
X182943011Y-119676561D01*
X182933002Y-119707283D01*
X182917698Y-119753312D01*
X182898228Y-119811260D01*
X182875717Y-119877742D01*
X182870760Y-119892323D01*
X182847574Y-119961601D01*
X182827251Y-120024496D01*
X182810947Y-120077249D01*
X182799819Y-120116102D01*
X182795024Y-120137295D01*
X182794921Y-120138826D01*
X182797063Y-120151246D01*
X182806828Y-120158352D01*
X182829220Y-120161597D01*
X182869249Y-120162434D01*
X182876324Y-120162442D01*
X182920500Y-120161543D01*
X182947636Y-120157736D01*
X182963994Y-120149351D01*
X182974889Y-120136190D01*
X182984057Y-120116981D01*
X182999021Y-120079688D01*
X183018252Y-120028385D01*
X183040220Y-119967142D01*
X183061452Y-119905758D01*
X183084020Y-119839571D01*
X183104444Y-119780063D01*
X183121369Y-119731151D01*
X183133440Y-119696752D01*
X183139147Y-119681160D01*
X183148978Y-119669239D01*
X183169805Y-119662932D01*
X183207162Y-119660796D01*
X183217445Y-119660742D01*
X183256042Y-119661497D01*
G37*
G36*
X182498462Y-119660886D02*
G01*
X182649078Y-119661031D01*
X182675330Y-119701559D01*
X182691841Y-119729522D01*
X182700955Y-119749764D01*
X182701582Y-119753129D01*
X182697995Y-119767195D01*
X182688018Y-119799682D01*
X182672826Y-119846936D01*
X182653594Y-119905304D01*
X182631495Y-119971132D01*
X182631300Y-119971707D01*
X182598543Y-120064873D01*
X182570912Y-120135793D01*
X182548476Y-120184306D01*
X182531764Y-120209779D01*
X182512743Y-120236521D01*
X182509326Y-120258049D01*
X182509496Y-120258519D01*
X182505095Y-120279095D01*
X182478925Y-120305350D01*
X182476672Y-120307089D01*
X182440300Y-120330421D01*
X182413588Y-120335295D01*
X182391993Y-120321769D01*
X182381800Y-120308284D01*
X182371741Y-120294921D01*
X182359378Y-120286417D01*
X182339669Y-120281679D01*
X182307575Y-120279611D01*
X182258053Y-120279121D01*
X182247435Y-120279116D01*
X182132183Y-120279116D01*
X182106153Y-120235363D01*
X182080123Y-120191610D01*
X182098466Y-120136190D01*
X182246636Y-120136190D01*
X182251257Y-120156672D01*
X182259006Y-120162442D01*
X182266473Y-120153517D01*
X182265028Y-120142024D01*
X182268732Y-120121132D01*
X182293688Y-120097813D01*
X182296327Y-120095994D01*
X182333382Y-120072481D01*
X182357805Y-120063538D01*
X182375332Y-120069340D01*
X182391699Y-120090063D01*
X182397162Y-120099084D01*
X182414012Y-120123667D01*
X182426729Y-120135207D01*
X182429662Y-120134897D01*
X182437341Y-120119912D01*
X182449984Y-120087618D01*
X182465926Y-120043082D01*
X182483501Y-119991368D01*
X182501047Y-119937543D01*
X182516899Y-119886671D01*
X182529391Y-119843819D01*
X182536860Y-119814052D01*
X182538238Y-119804468D01*
X182536557Y-119789739D01*
X182527964Y-119781626D01*
X182507133Y-119778171D01*
X182468739Y-119777418D01*
X182464629Y-119777416D01*
X182421859Y-119779706D01*
X182387101Y-119785681D01*
X182370825Y-119792184D01*
X182360155Y-119808077D01*
X182344538Y-119841324D01*
X182325771Y-119886945D01*
X182305653Y-119939955D01*
X182285983Y-119995372D01*
X182268559Y-120048212D01*
X182255182Y-120093495D01*
X182247649Y-120126235D01*
X182246636Y-120136190D01*
X182098466Y-120136190D01*
X182152649Y-119972485D01*
X182225174Y-119753360D01*
X182286510Y-119707051D01*
X182347846Y-119660742D01*
X182498462Y-119660886D01*
G37*
G36*
X182339194Y-117644316D02*
G01*
X182562618Y-117644471D01*
X182808230Y-117644770D01*
X182978490Y-117645038D01*
X184789665Y-117648110D01*
X184833612Y-117692056D01*
X184877558Y-117736003D01*
X184880494Y-119541344D01*
X184880880Y-119781286D01*
X184881213Y-119998998D01*
X184881479Y-120195588D01*
X184881668Y-120372161D01*
X184881767Y-120529824D01*
X184881763Y-120669682D01*
X184881645Y-120792841D01*
X184881401Y-120900408D01*
X184881017Y-120993489D01*
X184880482Y-121073189D01*
X184879784Y-121140615D01*
X184878911Y-121196873D01*
X184877850Y-121243069D01*
X184876589Y-121280308D01*
X184875116Y-121309698D01*
X184873419Y-121332343D01*
X184871485Y-121349351D01*
X184869303Y-121361826D01*
X184866861Y-121370876D01*
X184864145Y-121377606D01*
X184861144Y-121383122D01*
X184860183Y-121384712D01*
X184833284Y-121417686D01*
X184800219Y-121445110D01*
X184798909Y-121445922D01*
X184793501Y-121449011D01*
X184787153Y-121451812D01*
X184778758Y-121454339D01*
X184767206Y-121456608D01*
X184751389Y-121458630D01*
X184730198Y-121460422D01*
X184702524Y-121461995D01*
X184667258Y-121463365D01*
X184623292Y-121464544D01*
X184569517Y-121465548D01*
X184504824Y-121466390D01*
X184428104Y-121467084D01*
X184338248Y-121467643D01*
X184234148Y-121468082D01*
X184114695Y-121468415D01*
X183978780Y-121468655D01*
X183825294Y-121468817D01*
X183653128Y-121468915D01*
X183461175Y-121468961D01*
X183248324Y-121468971D01*
X183013468Y-121468958D01*
X182964099Y-121468954D01*
X181167314Y-121468801D01*
X181128960Y-121444241D01*
X181119420Y-121438713D01*
X181110752Y-121434197D01*
X181102914Y-121429607D01*
X181095865Y-121423855D01*
X181089563Y-121415854D01*
X181083966Y-121404517D01*
X181079033Y-121388757D01*
X181074723Y-121367486D01*
X181070993Y-121339617D01*
X181067803Y-121304064D01*
X181067203Y-121294182D01*
X181231485Y-121294182D01*
X182975766Y-121294182D01*
X184720048Y-121294182D01*
X184720048Y-119549901D01*
X184720048Y-117805620D01*
X182975766Y-117805620D01*
X181231485Y-117805620D01*
X181231485Y-119549901D01*
X181231485Y-121294182D01*
X181067203Y-121294182D01*
X181065110Y-121259739D01*
X181062873Y-121205555D01*
X181061050Y-121140425D01*
X181059600Y-121063262D01*
X181058482Y-120972978D01*
X181057653Y-120868487D01*
X181057072Y-120748700D01*
X181056698Y-120612532D01*
X181056489Y-120458895D01*
X181056403Y-120286702D01*
X181056399Y-120094865D01*
X181056435Y-119882298D01*
X181056470Y-119647914D01*
X181056474Y-119549901D01*
X181056474Y-119548941D01*
X181056478Y-119309049D01*
X181056499Y-119091386D01*
X181056551Y-118894845D01*
X181056648Y-118718320D01*
X181056805Y-118560706D01*
X181057035Y-118420895D01*
X181057353Y-118297782D01*
X181057772Y-118190261D01*
X181058306Y-118097225D01*
X181058971Y-118017568D01*
X181059779Y-117950185D01*
X181060745Y-117893968D01*
X181061882Y-117847811D01*
X181063206Y-117810609D01*
X181064730Y-117781256D01*
X181066468Y-117758644D01*
X181068434Y-117741668D01*
X181070642Y-117729222D01*
X181073106Y-117720199D01*
X181075841Y-117713494D01*
X181078861Y-117708000D01*
X181079912Y-117706280D01*
X181104243Y-117677131D01*
X181132431Y-117656468D01*
X181135332Y-117655162D01*
X181146815Y-117653278D01*
X181172129Y-117651586D01*
X181211970Y-117650080D01*
X181267035Y-117648758D01*
X181338020Y-117647615D01*
X181425622Y-117646647D01*
X181530537Y-117645852D01*
X181653462Y-117645224D01*
X181795094Y-117644760D01*
X181956129Y-117644457D01*
X182137263Y-117644310D01*
X182339194Y-117644316D01*
G37*
%TO.C,L1*%
D13*
X108865000Y-117790000D02*
X116085000Y-117790000D01*
X108865000Y-119190000D02*
X108865000Y-117790000D01*
X108865000Y-124610000D02*
X108865000Y-123210000D01*
X116085000Y-117790000D02*
X116085000Y-119190000D01*
X116085000Y-123210000D02*
X116085000Y-124610000D01*
X116085000Y-124610000D02*
X108865000Y-124610000D01*
%TO.C,U4*%
X178312000Y-92459000D02*
X191512000Y-92459000D01*
X191512000Y-108709000D01*
X178312000Y-108709000D01*
X178312000Y-92459000D01*
%TO.C,SW1*%
X103984800Y-87150000D02*
X105364800Y-87150000D01*
X103984800Y-88530000D02*
X103984800Y-87150000D01*
X103984800Y-89800000D02*
X103984800Y-92450000D01*
X103984800Y-89800000D02*
X106744800Y-89800000D01*
X103984800Y-92450000D02*
X106744800Y-92450000D01*
X106744800Y-89800000D02*
X106744800Y-92450000D01*
%TO.C,C1*%
X177471675Y-111568420D02*
X177471675Y-111849580D01*
X178491675Y-111568420D02*
X178491675Y-111849580D01*
%TO.C,J1*%
X125714000Y-114070800D02*
X125714000Y-127090800D01*
X125714000Y-127090800D02*
X130624000Y-127090800D01*
X126524000Y-114070800D02*
X125714000Y-114070800D01*
X128224000Y-110970800D02*
X128224000Y-109690800D01*
X128824000Y-110970800D02*
X128824000Y-109690800D01*
X131114000Y-114080800D02*
X130134000Y-114080800D01*
X132424000Y-110970800D02*
X132424000Y-109690800D01*
X133024000Y-110970800D02*
X133024000Y-109690800D01*
X134724000Y-113080800D02*
X135324000Y-112780800D01*
X134724000Y-114070800D02*
X135534000Y-114070800D01*
X135324000Y-112780800D02*
X135324000Y-113380800D01*
X135324000Y-113380800D02*
X134724000Y-113080800D01*
X135534000Y-114070800D02*
X135534000Y-127090800D01*
X135534000Y-127090800D02*
X130624000Y-127090800D01*
%TO.C,C7*%
X176179400Y-95141220D02*
X176179400Y-95422380D01*
X177199400Y-95141220D02*
X177199400Y-95422380D01*
%TO.C,D2*%
X132772842Y-100269842D02*
X134292842Y-100269842D01*
X132772842Y-100319842D02*
X132772842Y-100269842D01*
X132772842Y-102219842D02*
X132772842Y-101439842D01*
X132772842Y-103389842D02*
X132772842Y-103339842D01*
X134292842Y-100269842D02*
X134292842Y-101269842D01*
X134292842Y-102389842D02*
X134292842Y-103389842D01*
X134292842Y-103389842D02*
X132772842Y-103389842D01*
X132232842Y-101449842D02*
X132472842Y-101779842D01*
X131992842Y-101779842D01*
X132232842Y-101449842D01*
G36*
X132472842Y-101779842D02*
G01*
X131992842Y-101779842D01*
X132232842Y-101449842D01*
X132472842Y-101779842D01*
G37*
%TO.C,U1*%
D14*
X142624020Y-126657388D02*
X142624020Y-120157398D01*
X142624020Y-126657388D02*
X142624020Y-120157398D01*
X143382820Y-120157398D02*
X142624020Y-120157398D01*
X143382820Y-120157398D02*
X142624020Y-120157398D01*
X144211520Y-121012388D02*
X144211520Y-120570048D01*
X144211520Y-121012388D02*
X144211520Y-120570048D01*
X145961530Y-121012388D02*
X144211520Y-121012388D01*
X145961530Y-121012388D02*
X144211520Y-121012388D01*
X145961530Y-121012388D02*
X145961530Y-120568528D01*
X145961530Y-121012388D02*
X145961530Y-120568528D01*
X148458420Y-121010258D02*
X148458420Y-120568528D01*
X148458420Y-121010258D02*
X148458420Y-120568528D01*
X150208430Y-121010258D02*
X148458420Y-121010258D01*
X150208430Y-121010258D02*
X148458420Y-121010258D01*
X150208430Y-121010258D02*
X150208430Y-120568528D01*
X150208430Y-121010258D02*
X150208430Y-120568528D01*
X150919530Y-120157398D02*
X150865070Y-120157398D01*
X150919530Y-120157398D02*
X150865070Y-120157398D01*
X151574010Y-126657388D02*
X142624020Y-126657388D01*
X151574010Y-126657388D02*
X142624020Y-126657388D01*
X151624000Y-126657388D02*
X151574010Y-126657388D01*
X151624000Y-126657388D02*
X151574010Y-126657388D01*
X151624000Y-126657388D02*
X151624000Y-120157398D01*
X151624000Y-126657388D02*
X151624000Y-120157398D01*
X151628470Y-120157398D02*
X150919530Y-120157398D01*
X151628470Y-120157398D02*
X150919530Y-120157398D01*
D15*
X138101550Y-92854958D02*
X156146451Y-92854958D01*
X156146451Y-126193339D01*
X138101550Y-126193339D01*
X138101550Y-92854958D01*
%TO.C,C4*%
D13*
X114940580Y-113690000D02*
X114659420Y-113690000D01*
X114940580Y-114710000D02*
X114659420Y-114710000D01*
%TO.C,R4*%
X130110342Y-102192584D02*
X130110342Y-102667100D01*
X131155342Y-102192584D02*
X131155342Y-102667100D01*
%TO.C,R1*%
X114947458Y-111977500D02*
X114472942Y-111977500D01*
X114947458Y-113022500D02*
X114472942Y-113022500D01*
%TO.C,C3*%
X107037400Y-115644330D02*
X107037400Y-115363170D01*
X108057400Y-115644330D02*
X108057400Y-115363170D01*
%TO.C,BT1*%
X108210000Y-69765000D02*
X185990000Y-69765000D01*
X108210000Y-76940000D02*
X108210000Y-69765000D01*
X108210000Y-91135000D02*
X108210000Y-83960000D01*
X185990000Y-69765000D02*
X185990000Y-76940000D01*
X185990000Y-83960000D02*
X185990000Y-91135000D01*
X185990000Y-91135000D02*
X108210000Y-91135000D01*
%TO.C,D1*%
X122259700Y-119100000D02*
X118249700Y-119100000D01*
X122259700Y-121100000D02*
X118249700Y-121100000D01*
X122259700Y-121100000D02*
X122259700Y-119100000D01*
%TO.C,U3*%
X109685400Y-113781600D02*
X111505400Y-113781600D01*
X109685400Y-113831600D02*
X109685400Y-113781600D01*
X109685400Y-115731600D02*
X109685400Y-114951600D01*
X109685400Y-116901600D02*
X109685400Y-116851600D01*
X111505400Y-113781600D02*
X111505400Y-113831600D01*
X111505400Y-116851600D02*
X111505400Y-116901600D01*
X111505400Y-116901600D02*
X109685400Y-116901600D01*
X112045400Y-116851600D02*
X112285400Y-117181600D01*
X111805400Y-117181600D01*
X112045400Y-116851600D01*
G36*
X112285400Y-117181600D02*
G01*
X111805400Y-117181600D01*
X112045400Y-116851600D01*
X112285400Y-117181600D01*
G37*
%TO.C,C6*%
X114850780Y-110161200D02*
X114569620Y-110161200D01*
X114850780Y-111181200D02*
X114569620Y-111181200D01*
%TO.C,R2*%
X111645458Y-111999500D02*
X111170942Y-111999500D01*
X111645458Y-113044500D02*
X111170942Y-113044500D01*
%TO.C,C5*%
X136122842Y-101200422D02*
X136122842Y-100919262D01*
X137142842Y-101200422D02*
X137142842Y-100919262D01*
%TO.C,U2*%
D11*
X158969376Y-99134000D02*
X158969376Y-99884000D01*
X158969376Y-116634000D02*
X158969376Y-115884000D01*
X175469376Y-99134000D02*
X158969376Y-99134000D01*
X175469376Y-99884000D02*
X175469376Y-99134000D01*
X175469376Y-115884000D02*
X175469376Y-116634000D01*
X175469376Y-116634000D02*
X158969376Y-116634000D01*
D13*
X175769376Y-115884000D02*
X176269376Y-115884000D01*
X175769376Y-116384000D01*
X175769376Y-115884000D01*
G36*
X175769376Y-116384000D02*
G01*
X175769376Y-115884000D01*
X176269376Y-115884000D01*
X175769376Y-116384000D01*
G37*
%TO.C,R3*%
X128010342Y-103818458D02*
X128010342Y-103343942D01*
X129055342Y-103818458D02*
X129055342Y-103343942D01*
%TO.C,C8*%
X174394400Y-95141220D02*
X174394400Y-95422380D01*
X175414400Y-95141220D02*
X175414400Y-95422380D01*
%TO.C,C2*%
X179351275Y-111568420D02*
X179351275Y-111849580D01*
X180371275Y-111568420D02*
X180371275Y-111849580D01*
%TD*%
%LPC*%
D16*
%TO.C,L1*%
X109450000Y-121200000D03*
X115500000Y-121200000D03*
%TD*%
D17*
%TO.C,U4*%
X179832000Y-94489000D03*
D18*
X182372000Y-94489000D03*
X184912000Y-94489000D03*
X187452000Y-94489000D03*
X189992000Y-94489000D03*
%TD*%
D19*
%TO.C,REF\u002A\u002A*%
X104164800Y-123530000D03*
%TD*%
D20*
%TO.C,SW1*%
X105364800Y-88530000D03*
D21*
X105364800Y-91070000D03*
%TD*%
D22*
%TO.C,C1*%
X177981675Y-110934000D03*
X177981675Y-112484000D03*
%TD*%
D23*
%TO.C,J1*%
X130624000Y-120380800D03*
D24*
X132724000Y-113080800D03*
D25*
X128524000Y-113080800D03*
X132724000Y-107580800D03*
X128524000Y-107580800D03*
%TD*%
D22*
%TO.C,C7*%
X176689400Y-94506800D03*
X176689400Y-96056800D03*
%TD*%
D26*
%TO.C,D2*%
X132595342Y-100879842D03*
X132595342Y-102779842D03*
X134470342Y-101829842D03*
%TD*%
D27*
%TO.C,U1*%
X154744010Y-122164948D03*
X154744010Y-119624948D03*
X154744010Y-117084948D03*
X154744010Y-114544948D03*
X154744010Y-112004948D03*
X154744010Y-109464948D03*
X154744010Y-106924948D03*
X154744010Y-104384948D03*
X154744010Y-101844948D03*
X154744010Y-99304948D03*
X154744010Y-96764948D03*
X154744010Y-94224948D03*
X139504000Y-122164958D03*
X139504000Y-119624958D03*
X139504000Y-117084958D03*
X139504000Y-114544958D03*
X139504000Y-112004958D03*
X139504000Y-109464958D03*
X139504000Y-106924958D03*
X139504000Y-104384958D03*
X139504000Y-101844958D03*
X139504000Y-99304958D03*
X139504000Y-96764958D03*
X139504000Y-94224958D03*
D28*
X151664010Y-97319748D03*
X149124010Y-97319748D03*
X146584010Y-97319748D03*
D27*
X154744010Y-124704948D03*
X139504000Y-124704958D03*
%TD*%
D19*
%TO.C,REF\u002A\u002A*%
X190164800Y-123530000D03*
%TD*%
D29*
%TO.C,C4*%
X115575000Y-114200000D03*
X114025000Y-114200000D03*
%TD*%
D30*
%TO.C,R4*%
X130632842Y-101604842D03*
X130632842Y-103254842D03*
%TD*%
D31*
%TO.C,R1*%
X115535200Y-112500000D03*
X113885200Y-112500000D03*
%TD*%
D32*
%TO.C,C3*%
X107547400Y-116278750D03*
X107547400Y-114728750D03*
%TD*%
D33*
%TO.C,BT1*%
X110970000Y-72450000D03*
D34*
X119480000Y-88450000D03*
X174720000Y-72450000D03*
D35*
X107410000Y-80450000D03*
X186790000Y-80450000D03*
%TD*%
D36*
%TO.C,D1*%
X121549700Y-120100000D03*
X118249700Y-120100000D03*
%TD*%
D37*
%TO.C,U3*%
X111732900Y-116291600D03*
X111732900Y-115341600D03*
X111732900Y-114391600D03*
X109457900Y-114391600D03*
X109457900Y-116291600D03*
%TD*%
D29*
%TO.C,C6*%
X115485200Y-110671200D03*
X113935200Y-110671200D03*
%TD*%
D31*
%TO.C,R2*%
X112233200Y-112522000D03*
X110583200Y-112522000D03*
%TD*%
D19*
%TO.C,REF\u002A\u002A*%
X104164800Y-72530000D03*
%TD*%
%TO.C,REF\u002A\u002A*%
X190164800Y-72530000D03*
%TD*%
D32*
%TO.C,C5*%
X136632842Y-101834842D03*
X136632842Y-100284842D03*
%TD*%
D38*
%TO.C,U2*%
X175219376Y-114884000D03*
X175219376Y-112884000D03*
X175219376Y-110884000D03*
X175219376Y-108884000D03*
X175219376Y-106884000D03*
X175219376Y-104884000D03*
X175219376Y-102884000D03*
X175219376Y-100884000D03*
X159219376Y-100884000D03*
X159219376Y-102884000D03*
X159219376Y-104884000D03*
X159219376Y-106884000D03*
X159219376Y-108884000D03*
X159219376Y-110884000D03*
X159219376Y-112884000D03*
X159219376Y-114884000D03*
%TD*%
D39*
%TO.C,R3*%
X128532842Y-104406200D03*
X128532842Y-102756200D03*
%TD*%
D22*
%TO.C,C8*%
X174904400Y-94506800D03*
X174904400Y-96056800D03*
%TD*%
%TO.C,C2*%
X179861275Y-110934000D03*
X179861275Y-112484000D03*
%TD*%
%LPD*%
M02*
