%TF.GenerationSoftware,KiCad,Pcbnew,10.0.3*%
%TF.CreationDate,2026-09-30T18:54:53+09:00*%
%TF.ProjectId,fsk-timekeeper,66736b2d-7469-46d6-956b-65657065722e,rev?*%
%TF.SameCoordinates,Original*%
%TF.FileFunction,Paste,Top*%
%TF.FilePolarity,Positive*%
%FSLAX46Y46*%
G04 Gerber Fmt 4.6, Leading zero omitted, Abs format (unit mm)*
G04 Created by KiCad (PCBNEW 10.0.3) date 2026-09-30 18:54:53*
%MOMM*%
%LPD*%
G01*
G04 APERTURE LIST*
G04 Aperture macros list*
%AMRoundRect*
0 Rectangle with rounded corners*
0 $1 Rounding radius*
0 $2 $3 $4 $5 $6 $7 $8 $9 X,Y pos of 4 corners*
0 Add a 4 corners polygon primitive as box body*
4,1,4,$2,$3,$4,$5,$6,$7,$8,$9,$2,$3,0*
0 Add four circle primitives for the rounded corners*
1,1,$1+$1,$2,$3*
1,1,$1+$1,$4,$5*
1,1,$1+$1,$6,$7*
1,1,$1+$1,$8,$9*
0 Add four rect primitives between the rounded corners*
20,1,$1+$1,$2,$3,$4,$5,0*
20,1,$1+$1,$4,$5,$6,$7,0*
20,1,$1+$1,$6,$7,$8,$9,0*
20,1,$1+$1,$8,$9,$2,$3,0*%
G04 Aperture macros list end*
%ADD10RoundRect,0.250000X-0.925000X-1.500000X0.925000X-1.500000X0.925000X1.500000X-0.925000X1.500000X0*%
%ADD11RoundRect,0.225000X-0.250000X0.225000X-0.250000X-0.225000X0.250000X-0.225000X0.250000X0.225000X0*%
%ADD12RoundRect,0.150000X-0.587500X-0.150000X0.587500X-0.150000X0.587500X0.150000X-0.587500X0.150000X0*%
%ADD13RoundRect,0.225000X0.225000X0.250000X-0.225000X0.250000X-0.225000X-0.250000X0.225000X-0.250000X0*%
%ADD14RoundRect,0.200000X-0.275000X0.200000X-0.275000X-0.200000X0.275000X-0.200000X0.275000X0.200000X0*%
%ADD15RoundRect,0.200000X0.200000X0.275000X-0.200000X0.275000X-0.200000X-0.275000X0.200000X-0.275000X0*%
%ADD16RoundRect,0.225000X0.250000X-0.225000X0.250000X0.225000X-0.250000X0.225000X-0.250000X-0.225000X0*%
%ADD17RoundRect,0.250003X-3.499997X-2.999997X3.499997X-2.999997X3.499997X2.999997X-3.499997X2.999997X0*%
%ADD18RoundRect,0.225000X0.225000X0.375000X-0.225000X0.375000X-0.225000X-0.375000X0.225000X-0.375000X0*%
%ADD19RoundRect,0.150000X0.512500X0.150000X-0.512500X0.150000X-0.512500X-0.150000X0.512500X-0.150000X0*%
%ADD20R,2.000000X1.500000*%
%ADD21RoundRect,0.200000X0.275000X-0.200000X0.275000X0.200000X-0.275000X0.200000X-0.275000X-0.200000X0*%
G04 APERTURE END LIST*
D10*
%TO.C,L1*%
X109450000Y-121200000D03*
X115500000Y-121200000D03*
%TD*%
D11*
%TO.C,C1*%
X177981675Y-110934000D03*
X177981675Y-112484000D03*
%TD*%
%TO.C,C7*%
X176689400Y-94506800D03*
X176689400Y-96056800D03*
%TD*%
D12*
%TO.C,D2*%
X132595342Y-100879842D03*
X132595342Y-102779842D03*
X134470342Y-101829842D03*
%TD*%
D13*
%TO.C,C4*%
X115575000Y-114200000D03*
X114025000Y-114200000D03*
%TD*%
D14*
%TO.C,R4*%
X130632842Y-101604842D03*
X130632842Y-103254842D03*
%TD*%
D15*
%TO.C,R1*%
X115535200Y-112500000D03*
X113885200Y-112500000D03*
%TD*%
D16*
%TO.C,C3*%
X107547400Y-116278750D03*
X107547400Y-114728750D03*
%TD*%
D17*
%TO.C,BT1*%
X107410000Y-80450000D03*
X186790000Y-80450000D03*
%TD*%
D18*
%TO.C,D1*%
X121549700Y-120100000D03*
X118249700Y-120100000D03*
%TD*%
D19*
%TO.C,U3*%
X111732900Y-116291600D03*
X111732900Y-115341600D03*
X111732900Y-114391600D03*
X109457900Y-114391600D03*
X109457900Y-116291600D03*
%TD*%
D13*
%TO.C,C6*%
X115485200Y-110671200D03*
X113935200Y-110671200D03*
%TD*%
D15*
%TO.C,R2*%
X112233200Y-112522000D03*
X110583200Y-112522000D03*
%TD*%
D16*
%TO.C,C5*%
X136632842Y-101834842D03*
X136632842Y-100284842D03*
%TD*%
D20*
%TO.C,U2*%
X175219376Y-114884000D03*
X175219376Y-112884000D03*
X175219376Y-110884000D03*
X175219376Y-108884000D03*
X175219376Y-106884000D03*
X175219376Y-104884000D03*
X175219376Y-102884000D03*
X175219376Y-100884000D03*
X159219376Y-100884000D03*
X159219376Y-102884000D03*
X159219376Y-104884000D03*
X159219376Y-106884000D03*
X159219376Y-108884000D03*
X159219376Y-110884000D03*
X159219376Y-112884000D03*
X159219376Y-114884000D03*
%TD*%
D21*
%TO.C,R3*%
X128532842Y-104406200D03*
X128532842Y-102756200D03*
%TD*%
D11*
%TO.C,C8*%
X174904400Y-94506800D03*
X174904400Y-96056800D03*
%TD*%
%TO.C,C2*%
X179861275Y-110934000D03*
X179861275Y-112484000D03*
%TD*%
M02*
