M48
; DRILL file KiCad 10.0.3 date 2026-09-30T18:54:53
; FORMAT={-:-/ absolute / inch / decimal}
; #@! TF.CreationDate,2026-09-30T18:54:53+09:00
; #@! TF.GenerationSoftware,Kicad,Pcbnew,10.0.3
; #@! TF.FileFunction,Plated,1,2,PTH
FMAT,2
INCH
; #@! TA.AperFunction,Plated,PTH,ViaDrill
T1C0.0118
; #@! TA.AperFunction,Plated,PTH,ComponentDrill
T2C0.0300
; #@! TA.AperFunction,Plated,PTH,ComponentDrill
T3C0.0350
; #@! TA.AperFunction,Plated,PTH,ComponentDrill
T4C0.0360
; #@! TA.AperFunction,Plated,PTH,ComponentDrill
T5C0.0360
; #@! TA.AperFunction,Plated,PTH,ComponentDrill
T6C0.0394
; #@! TA.AperFunction,Plated,PTH,ComponentDrill
T7C0.0709
; #@! TA.AperFunction,Plated,PTH,ComponentDrill
T8C0.0866
%
G90
G05
T1
X4.0354Y-3.1102
X4.0354Y-4.6654
X4.0453Y-3.4843
X4.0453Y-3.8583
X4.0453Y-4.2323
X4.1732Y-4.5177
X4.3406Y-4.3701
X4.3701Y-4.9311
X4.3799Y-3.5236
X4.3799Y-3.9173
X4.4193Y-3.1299
X4.4488Y-2.7953
X4.4783Y-4.5512
X4.7736Y-2.8051
X4.7736Y-3.1299
X4.7736Y-3.9173
X4.7736Y-4.311
X4.7736Y-4.626
X4.7736Y-4.8622
X4.8031Y-3.5433
X5.1181Y-2.8051
X5.1673Y-3.1299
X5.1673Y-3.5236
X5.2067Y-3.9173
X5.3792Y-3.898
X5.4134Y-4.8622
X5.4528Y-2.8051
X5.561Y-3.1299
X5.561Y-3.5236
X5.7972Y-2.8051
X5.9547Y-3.1299
X5.9547Y-3.4941
X6.1319Y-2.8051
X6.148Y-4.4599
X6.2697Y-4.6161
X6.342Y-3.9718
X6.3484Y-3.1299
X6.3484Y-3.4941
X6.3878Y-4.6555
X6.3929Y-4.46
X6.4665Y-2.8051
X6.4665Y-4.9213
X6.5846Y-3.8091
X6.5846Y-4.6555
X6.7421Y-3.1299
X6.7421Y-3.4941
X6.7618Y-3.8091
X6.7815Y-2.7854
X6.7913Y-4.6555
X6.811Y-4.9213
X6.8223Y-4.4445
X6.886Y-3.834
X6.956Y-3.834
X6.998Y-4.0453
X6.998Y-4.252
X6.998Y-4.6555
X7.0074Y-4.478
X7.0822Y-4.478
X7.0866Y-3.4941
X7.1457Y-2.8051
X7.1457Y-4.9213
X7.1555Y-3.0709
X7.1555Y-3.2677
X7.18Y-3.8287
X7.2441Y-4.3012
X7.3549Y-3.3299
X7.5394Y-3.4843
X7.5394Y-4.6063
X7.5492Y-3.1102
X7.5591Y-3.8583
X7.5591Y-4.2323
T2
X5.4923Y-4.9096
X6.0923Y-4.9096
T3
X5.771Y-3.8315
X5.871Y-3.8315
X5.971Y-3.8315
T4
X6.0923Y-3.7096
T5
X5.4923Y-3.7096
X5.4923Y-3.8096
X5.4923Y-3.9096
X5.4923Y-4.0096
X5.4923Y-4.1096
X5.4923Y-4.2096
X5.4923Y-4.3096
X5.4923Y-4.4096
X5.4923Y-4.5096
X5.4923Y-4.6096
X5.4923Y-4.7096
X5.4923Y-4.8096
X6.0923Y-3.8096
X6.0923Y-3.9096
X6.0923Y-4.0096
X6.0923Y-4.1096
X6.0923Y-4.2096
X6.0923Y-4.3096
X6.0923Y-4.4096
X6.0923Y-4.5096
X6.0923Y-4.6096
X6.0923Y-4.7096
X6.0923Y-4.8096
T6
X4.1482Y-3.4854
X4.1482Y-3.5854
X7.08Y-3.72
X7.18Y-3.72
X7.28Y-3.72
X7.38Y-3.72
X7.48Y-3.72
T7
X5.06Y-4.2355
X5.06Y-4.452
X5.2254Y-4.2355
X5.2254Y-4.452
T8
X4.101Y-2.8555
X4.101Y-4.8634
X7.4868Y-2.8555
X7.4868Y-4.8634
M30
